<svg viewBox="0 0 58 58" xmlns="http://www.w3.org/2000/svg">
<path d="M30.8 30.5C36.3 30.5 39.5 27.5 39.5 22.5C39.5 17.8 36.6 15.5 30.8 15.5H25C24.2 15.5 23.5 16.2 23.5 17V27.5H20C19.2 27.5 18.5 28.2 18.5 29C18.5 29.8 19.2 30.5 20 30.5H23.5V32.5H20C19.2 32.5 18.5 33.2 18.5 34C18.5 34.8 19.2 35.5 20 35.5H23.5V41C23.5 41.8 24.2 42.5 25 42.5C25.8 42.5 26.5 41.8 26.5 41V35.5H34C34.8 35.5 35.5 34.8 35.5 34C35.5 33.2 34.8 32.5 34 32.5H26.5V30.5H30.8ZM26.5 18.5H30.8C36.1 18.5 36.5 20.5 36.5 22.5C36.5 25.9 34.6 27.5 30.8 27.5H26.5V18.5Z" />
<path d="M29 57.5C13.3 57.5 0.5 44.7 0.5 29C0.5 13.3 13.3 0.5 29 0.5C44.7 0.5 57.5 13.3 57.5 29C57.5 44.7 44.7 57.5 29 57.5ZM29 3.5C14.9 3.5 3.5 14.9 3.5 29C3.5 43.1 14.9 54.5 29 54.5C43.1 54.5 54.5 43.1 54.5 29C54.5 14.9 43.1 3.5 29 3.5Z" />
</svg>
