<svg viewBox="0 0 35 47" fill="none" xmlns="http://www.w3.org/2000/svg">
<path d="M17.5 0.115234C8.3842 0.115234 0.969971 7.50344 0.969971 16.5872C0.969971 19.8626 1.89199 23.4135 3.58841 26.048L16.5381 46.1588C16.6411 46.32 16.7832 46.4528 16.9513 46.5448C17.1195 46.6367 17.3082 46.685 17.5 46.685C17.6918 46.685 17.8805 46.6367 18.0486 46.5448C18.2167 46.4528 18.3589 46.32 18.4618 46.1588L31.4115 26.048C33.1069 23.4133 34.03 19.8628 34.03 16.5872C34.03 7.50344 26.6157 0.115234 17.5 0.115234ZM17.5 2.38723C25.3835 2.38723 31.75 8.73132 31.75 16.5872C31.75 19.4169 30.8693 22.6762 29.4878 24.8233L17.5 43.443L5.51216 24.8233C4.13024 22.6771 3.24997 19.417 3.24997 16.5872C3.24997 8.73132 9.6164 2.38723 17.5 2.38723ZM17.5 8.63523C13.1062 8.63523 9.51997 12.2089 9.51997 16.5872C9.51997 20.9655 13.1062 24.5393 17.5 24.5393C21.8937 24.5393 25.48 20.9655 25.48 16.5872C25.48 12.2089 21.8937 8.63523 17.5 8.63523ZM17.5 10.9072C20.6615 10.9072 23.2 13.4368 23.2 16.5872C23.2 19.7376 20.6615 22.2673 17.5 22.2673C14.3385 22.2673 11.8 19.7376 11.8 16.5872C11.8 13.4368 14.3384 10.9072 17.5 10.9072Z" fill="white"/>
</svg>
