<svg viewBox="0 0 70 70" xmlns="http://www.w3.org/2000/svg">
<path d="M30.8 30.5C36.3 30.5 39.5 27.5 39.5 22.5C39.5 17.8 36.6 15.5 30.8 15.5H25C24.2 15.5 23.5 16.2 23.5 17V27.5H20C19.2 27.5 18.5 28.2 18.5 29C18.5 29.8 19.2 30.5 20 30.5H23.5V32.5H20C19.2 32.5 18.5 33.2 18.5 34C18.5 34.8 19.2 35.5 20 35.5H23.5V41C23.5 41.8 24.2 42.5 25 42.5C25.8 42.5 26.5 41.8 26.5 41V35.5H34C34.8 35.5 35.5 34.8 35.5 34C35.5 33.2 34.8 32.5 34 32.5H26.5V30.5H30.8ZM26.5 18.5H30.8C36.1 18.5 36.5 20.5 36.5 22.5C36.5 25.9 34.6 27.5 30.8 27.5H26.5V18.5Z" fill="white"/>
<path d="M35.1 63.5999C34.1 63.5999 33.1 63.4999 32.1 63.3999C31.3 63.2999 30.7 62.5999 30.8 61.7999C30.9 60.9999 31.6 60.3999 32.4 60.4999C33.3 60.5999 34.2 60.5999 35.1 60.5999C49.1 60.5999 60.6 49.1999 60.6 35.0999C60.6 34.0999 60.5 33.0999 60.4 32.1999C60.3 31.3999 60.9 30.5999 61.7 30.4999C62.5 30.3999 63.3 30.9999 63.4 31.7999C63.5 32.8999 63.6 33.9999 63.6 35.0999C63.6 50.7999 50.8 63.5999 35.1 63.5999Z" fill="white"/>
<path d="M41.2999 69.6999C40.2999 69.6999 39.2999 69.5999 38.2999 69.4999C37.4999 69.3999 36.8999 68.6999 36.9999 67.7999C37.0999 66.8999 37.7999 66.3999 38.6999 66.4999C39.5999 66.5999 40.4999 66.5999 41.3999 66.5999C55.3999 66.5999 66.8999 55.1999 66.8999 41.0999C66.8999 40.0999 66.7999 39.1999 66.6999 38.1999C66.5999 37.3999 67.1999 36.5999 67.9999 36.4999C68.7999 36.3999 69.5999 36.9999 69.6999 37.7999C69.7999 38.8999 69.8999 39.9999 69.8999 41.0999C69.6999 56.9999 56.9999 69.6999 41.2999 69.6999Z" fill="white"/>
<path d="M29.1 51C29 50.2 29.7 49.5 30.5 49.4C31.3 49.3 32 50 32.1 50.8C32.1 51.6 31.5 52.3 30.7 52.4H30.6C29.8 52.4 29.1 51.8 29.1 51ZM24.3 52C23.5 51.8 23 51 23.1 50.2C23.3 49.4 24.1 48.9 24.9 49C25.7 49.2 26.2 50 26.1 50.8C26 51.5 25.3 52 24.6 52C24.5 52.1 24.4 52 24.3 52ZM35 50.2C34.7 49.4 35.1 48.6 35.9 48.3C36.7 48 37.5 48.4 37.8 49.2C38.1 50 37.7 50.8 36.9 51.1C36.7 51.2 36.6 51.2 36.4 51.2C35.8 51.2 35.2 50.8 35 50.2ZM18.3 49.9C17.6 49.5 17.3 48.6 17.7 47.9C18.1 47.2 19 46.9 19.7 47.3C20.4 47.7 20.7 48.6 20.3 49.3C20 49.8 19.5 50.1 19 50.1C18.7 50.1 18.5 50 18.3 49.9ZM40.5 47.8C40 47.1 40.2 46.2 40.9 45.7C41.6 45.2 42.5 45.4 43 46C43.5 46.7 43.3 47.6 42.6 48.1C42.3 48.3 42 48.4 41.7 48.4C41.3 48.4 40.8 48.2 40.5 47.8ZM13 46.2C12.4 45.6 12.4 44.7 12.9 44.1C13.5 43.5 14.4 43.5 15 44C15.6 44.6 15.6 45.5 15.1 46.1C14.8 46.4 14.4 46.6 14 46.6C13.7 46.6 13.3 46.5 13 46.2ZM45.2 44C44.5 43.5 44.4 42.5 45 41.9C45.5 41.3 46.5 41.1 47.1 41.7C47.7 42.2 47.8 43.2 47.3 43.8C47 44.2 46.6 44.4 46.1 44.4C45.8 44.3 45.4 44.2 45.2 44ZM9 41.3C8.6 40.6 8.8 39.7 9.5 39.2C10.2 38.8 11.1 39 11.6 39.7C12 40.4 11.8 41.3 11.1 41.8C10.9 41.9 10.6 42 10.3 42C9.7 42 9.2 41.8 9 41.3ZM48.6 39.1C47.8 38.8 47.5 37.9 47.8 37.1C48.1 36.3 49 36 49.8 36.3C50.6 36.6 50.9 37.5 50.6 38.3C50.4 38.9 49.8 39.2 49.2 39.2C49 39.2 48.8 39.2 48.6 39.1ZM6.4 35.4C6.2 34.6 6.6 33.8 7.4 33.6C8.2 33.4 9 33.8 9.3 34.6C9.5 35.4 9.1 36.2 8.3 36.5C8.2 36.5 8 36.6 7.9 36.6C7.2 36.5 6.6 36.1 6.4 35.4ZM50.6 33.4C49.8 33.3 49.2 32.5 49.3 31.7C49.4 30.9 50.2 30.3 51 30.4C51.8 30.5 52.4 31.3 52.3 32.1C52.2 32.9 51.5 33.4 50.8 33.4C50.7 33.5 50.7 33.4 50.6 33.4ZM5.5 29.1C5.5 29 5.5 29 5.5 29.1C5.5 28.2 6.2 27.5 7 27.5C7.8 27.5 8.5 28.2 8.5 29C8.5 29.8 7.8 30.5 7 30.5C6.2 30.6 5.5 29.9 5.5 29.1ZM49.3 26.2C49.2 25.4 49.8 24.6 50.6 24.5C51.4 24.4 52.2 25 52.3 25.8C52.4 26.6 51.8 27.4 51 27.5C50.9 27.5 50.9 27.5 50.8 27.5C50 27.5 49.4 26.9 49.3 26.2ZM7.4 24.5C6.6 24.3 6.1 23.5 6.4 22.6C6.6 21.8 7.5 21.3 8.3 21.6C9.1 21.8 9.6 22.7 9.3 23.5C9.1 24.2 8.5 24.6 7.9 24.6C7.7 24.6 7.5 24.5 7.4 24.5ZM47.8 20.8C47.5 20 47.8 19.2 48.6 18.8C49.4 18.5 50.2 18.8 50.6 19.6C50.9 20.4 50.6 21.2 49.8 21.6C49.6 21.7 49.4 21.7 49.2 21.7C48.6 21.7 48 21.4 47.8 20.8ZM9.4 18.8C8.7 18.4 8.5 17.5 8.9 16.7C9.3 16 10.3 15.8 11 16.2C11.7 16.6 11.9 17.6 11.5 18.3C11.2 18.8 10.7 19 10.2 19C9.9 19.1 9.7 19 9.4 18.8ZM44.9 16C44.4 15.4 44.5 14.4 45.1 13.9C45.8 13.4 46.7 13.5 47.2 14.1C47.7 14.7 47.6 15.7 47 16.2C46.7 16.4 46.4 16.5 46 16.5C45.6 16.6 45.2 16.4 44.9 16ZM12.9 13.9C12.3 13.3 12.4 12.4 13 11.8C13.6 11.2 14.6 11.3 15.1 11.9C15.7 12.5 15.6 13.5 15 14C14.7 14.3 14.3 14.4 14 14.4C13.6 14.4 13.2 14.3 12.9 13.9ZM40.8 12.2C40.1 11.7 40 10.8 40.4 10.1C40.9 9.4 41.8 9.3 42.5 9.7C43.2 10.2 43.3 11.1 42.9 11.8C42.6 12.2 42.1 12.4 41.7 12.4C41.4 12.5 41.1 12.4 40.8 12.2ZM17.5 10.2C17.1 9.5 17.4 8.6 18.1 8.2C18.8 7.8 19.7 8.1 20.1 8.8C20.5 9.5 20.2 10.4 19.5 10.8C19.3 10.9 19 11 18.8 11C18.3 11 17.8 10.7 17.5 10.2ZM35.8 9.7C35 9.4 34.6 8.6 34.9 7.8C35.2 7 36 6.6 36.8 6.9C37.6 7.2 38 8 37.7 8.8C37.5 9.4 36.9 9.8 36.3 9.8C36.2 9.8 36 9.7 35.8 9.7ZM23 7.8C22.8 7 23.3 6.2 24.2 6C25 5.8 25.8 6.4 26 7.2C26.2 8 25.6 8.8 24.8 9C24.7 9 24.6 9 24.5 9C23.8 9 23.2 8.5 23 7.8ZM30.4 8.5C29.6 8.4 28.9 7.7 29 6.9C29.1 6.1 29.8 5.5 30.6 5.5C31.4 5.6 32.1 6.3 32 7.1C31.9 7.9 31.3 8.5 30.5 8.5C30.4 8.5 30.4 8.5 30.4 8.5Z" fill="white"/>
<path d="M29 57.5C13.3 57.5 0.5 44.7 0.5 29C0.5 13.3 13.3 0.5 29 0.5C44.7 0.5 57.5 13.3 57.5 29C57.5 44.7 44.7 57.5 29 57.5ZM29 3.5C14.9 3.5 3.5 14.9 3.5 29C3.5 43.1 14.9 54.5 29 54.5C43.1 54.5 54.5 43.1 54.5 29C54.5 14.9 43.1 3.5 29 3.5Z" fill="white"/>
</svg>
