<?xml version="1.0" encoding="utf-8"?>
<!-- Generator: Adobe Illustrator 24.2.1, SVG Export Plug-In . SVG Version: 6.00 Build 0)  -->
<svg version="1.1" id="Layer_1" xmlns="http://www.w3.org/2000/svg" xmlns:xlink="http://www.w3.org/1999/xlink" x="0px" y="0px"
	 viewBox="0 0 32 32" style="enable-background:new 0 0 32 32;" xml:space="preserve">
<path style="fill:#FFFFFF;fill-opacity:0.5;" d="M16,12.2l-5.8,5.7c-0.3,0.3-0.3,0.7,0,0.9c0.3,0.3,0.7,0.3,0.9,0l5.4-5.3l5.4,5.3
	c0.3,0.3,0.7,0.3,0.9,0c0.3-0.3,0.3-0.7,0-0.9L17,12.2C16.7,11.9,16.3,11.9,16,12.2z"/>
<path style="fill:#8DD252;stroke:#8DD252;stroke-width:0.8;stroke-opacity:0.5;" d="M9.9,17.6L9.9,17.6c-0.4,0.4-0.4,1.1,0,1.5l0,0
	l0,0c0.4,0.4,1.1,0.4,1.5,0c0,0,0,0,0,0l5.1-5l5.1,5c0.4,0.4,1.1,0.4,1.5,0l0,0c0.4-0.4,0.4-1.1,0-1.5l0,0l-5.8-5.7l0,0
	c-0.4-0.4-1.1-0.4-1.5,0c0,0,0,0,0,0L9.9,17.6z"/>
<circle style="fill:none;stroke:#8DD252;stroke-width:2;stroke-opacity:0.5;" cx="16" cy="16" r="15"/>
</svg>
