<svg viewBox="0 0 98 98" fill="none" xmlns="http://www.w3.org/2000/svg">
<path d="M81.8 94.91L49 62.12L16.2 94.91C15.3405 95.7732 14.319 96.4582 13.1942 96.9256C12.0693 97.393 10.8631 97.6336 9.64501 97.6336C8.42689 97.6336 7.22076 97.393 6.09586 96.9256C4.97097 96.4582 3.94947 95.7732 3.09001 94.91V94.91C2.22679 94.0505 1.54182 93.029 1.07444 91.9042C0.607054 90.7793 0.366455 89.5731 0.366455 88.355C0.366455 87.1369 0.607054 85.9308 1.07444 84.8059C1.54182 83.681 2.22679 82.6595 3.09001 81.8L35.88 49L3.09001 16.2C2.22679 15.3405 1.54182 14.319 1.07444 13.1942C0.607054 12.0693 0.366455 10.8631 0.366455 9.64501C0.366455 8.42689 0.607054 7.22076 1.07444 6.09586C1.54182 4.97097 2.22679 3.94947 3.09001 3.09001V3.09001C3.94947 2.22679 4.97097 1.54182 6.09586 1.07444C7.22076 0.607054 8.42689 0.366455 9.64501 0.366455C10.8631 0.366455 12.0693 0.607054 13.1942 1.07444C14.319 1.54182 15.3405 2.22679 16.2 3.09001L49 35.88L81.8 3.09001C82.6595 2.22679 83.681 1.54182 84.8059 1.07444C85.9308 0.607054 87.1369 0.366455 88.355 0.366455C89.5731 0.366455 90.7793 0.607054 91.9042 1.07444C93.029 1.54182 94.0505 2.22679 94.91 3.09001V3.09001C95.7732 3.94947 96.4582 4.97097 96.9256 6.09586C97.393 7.22076 97.6336 8.42689 97.6336 9.64501C97.6336 10.8631 97.393 12.0693 96.9256 13.1942C96.4582 14.319 95.7732 15.3405 94.91 16.2L62.12 49L94.91 81.8C95.7732 82.6595 96.4582 83.681 96.9256 84.8059C97.393 85.9308 97.6336 87.1369 97.6336 88.355C97.6336 89.5731 97.393 90.7793 96.9256 91.9042C96.4582 93.029 95.7732 94.0505 94.91 94.91V94.91C94.0505 95.7732 93.029 96.4582 91.9042 96.9256C90.7793 97.393 89.5731 97.6336 88.355 97.6336C87.1369 97.6336 85.9308 97.393 84.8059 96.9256C83.681 96.4582 82.6595 95.7732 81.8 94.91V94.91Z"/>
</svg>
