<?xml version="1.0" encoding="utf-8"?>
<!-- Generator: Adobe Illustrator 24.2.1, SVG Export Plug-In . SVG Version: 6.00 Build 0)  -->
<svg version="1.1" id="Layer_1" xmlns="http://www.w3.org/2000/svg" xmlns:xlink="http://www.w3.org/1999/xlink" x="0px" y="0px"
	 viewBox="0 0 2183.2 1308.2" style="enable-background:new 0 0 2183.2 1308.2;" xml:space="preserve">
<g>
	<g>
		<g>
			<g>
				<linearGradient id="SVGID_1_" gradientUnits="userSpaceOnUse" x1="71.2165" y1="1029.4263" x2="391.0226" y2="1029.4263">
					<stop  offset="0" style="stop-color:#53CD9F"/>
					<stop  offset="1" style="stop-color:#0D7A5C"/>
				</linearGradient>
				<path style="fill:url(#SVGID_1_);" d="M388,1283c0,0-213.9-105.5-250.7-160.5c-36.8-55,17.3-58.1,17.3-58.1s-95.5-92.8-82-131.9
					c13.4-39.1,63.6-1.7,63.6-1.7S74,792.6,103,778.8c53.9-25.6,129.5,121.4,129.5,121.4s-16.3-63.9,20.9-61.8
					c56,3.1,53.7,147.6,53.7,147.6s6.3-55.4,40.1-37.4C407.6,981,388,1283,388,1283z"/>
			</g>
			<path style="fill:#B7D972;" d="M359.3,926.3c-26.3-14.6-52.6,28.1-52.6,28.1s2.7-112.8-53.3-116c-37.1-2.1-20.9,61.8-20.9,61.8
				s-75.6-147-129.5-121.4l285.3,501.8C390.2,1245.6,411.5,955.3,359.3,926.3z"/>
		</g>
		<g>
			<g>
				<linearGradient id="SVGID_2_" gradientUnits="userSpaceOnUse" x1="0" y1="1176.9819" x2="382.4407" y2="1176.9819">
					<stop  offset="0" style="stop-color:#53CD9F"/>
					<stop  offset="1" style="stop-color:#0D7A5C"/>
				</linearGradient>
				<path style="fill:url(#SVGID_2_);" d="M382.4,1284.3c0,0-175,21.7-220.3,2.4c-45.3-19.4-12.8-43.3-12.8-43.3
					s-97.3-19.1-104.8-49c-7.5-29.8,38.9-26.9,38.9-26.9s-94.8-61-82.4-81.3c23.2-37.9,130.1,23.1,130.1,23.1s-36.1-33.2-12.1-47
					c36.2-20.8,93.5,70.3,93.5,70.3s-3.6-22.4,24.8-24.9C288.3,1103.2,382.4,1284.3,382.4,1284.3z"/>
			</g>
			<path style="fill:#B7D972;" d="M234.5,1077.3c-28.4,2.5-27.9,30-27.9,30s-52.2-82.6-88.4-61.8c-24,13.8,4.4,59.1,4.4,59.1
				s-98.2-56.1-121.4-18.3L383,1283.3C370,1260.7,282,1073.1,234.5,1077.3z"/>
		</g>
	</g>
	<g>
		<g>
			<g>
				<linearGradient id="SVGID_3_" gradientUnits="userSpaceOnUse" x1="1792.1447" y1="1040.5273" x2="2111.9514" y2="1040.5273">
					<stop  offset="0" style="stop-color:#53CD9F"/>
					<stop  offset="1" style="stop-color:#0D7A5C"/>
				</linearGradient>
				<path style="fill:url(#SVGID_3_);" d="M1795.2,1294.1c0,0,213.9-105.5,250.7-160.5c36.8-55-17.3-58.1-17.3-58.1
					s95.5-92.8,82-131.9c-13.4-39.1-63.6-1.7-63.6-1.7s62-138.1,33.1-151.9c-53.9-25.6-129.5,121.4-129.5,121.4s16.3-63.9-20.9-61.8
					c-56,3.1-53.7,147.6-53.7,147.6s-6.3-55.4-40.1-37.4C1775.5,992.1,1795.2,1294.1,1795.2,1294.1z"/>
			</g>
			<path style="fill:#B7D972;" d="M1823.9,937.4c26.3-14.6,52.6,28.1,52.6,28.1s-2.7-112.8,53.3-116c37.1-2.1,20.9,61.8,20.9,61.8
				s75.6-147,129.5-121.4L1795,1291.8C1792.9,1256.7,1771.7,966.4,1823.9,937.4z"/>
		</g>
		<g>
			<g>
				<linearGradient id="SVGID_4_" gradientUnits="userSpaceOnUse" x1="1800.7264" y1="1188.0833" x2="2183.1677" y2="1188.0833">
					<stop  offset="0" style="stop-color:#53CD9F"/>
					<stop  offset="1" style="stop-color:#0D7A5C"/>
				</linearGradient>
				<path style="fill:url(#SVGID_4_);" d="M1800.7,1295.4c0,0,175,21.7,220.3,2.4c45.3-19.4,12.8-43.3,12.8-43.3s97.3-19.1,104.8-49
					c7.5-29.8-38.9-26.9-38.9-26.9s94.8-61,82.4-81.3c-23.2-37.9-130.1,23.1-130.1,23.1s36.1-33.2,12.1-47
					c-36.2-20.8-93.5,70.3-93.5,70.3s3.6-22.4-24.8-24.9C1894.8,1114.3,1800.7,1295.4,1800.7,1295.4z"/>
			</g>
			<path style="fill:#B7D972;" d="M1944.6,1102.5c28.4,2.5,25.9,41.2,25.9,41.2s58.3-107.9,94.5-87.1c24,13.8-4.4,59.1-4.4,59.1
				s98.2-56.1,121.4-18.3l-381.8,197.1C1813.2,1271.8,1897.1,1098.3,1944.6,1102.5z"/>
		</g>
	</g>
	<g>
		<path style="fill:#473B1E;" d="M1243,358.9c0,0-165.5-25-309.4-30.3c-143.6,0-309.4,30.3-309.4,30.3
			c0,136.7-127.4,139.1-127.4,139.1s22.2,347.7,87,522.5c64.7,174.8,349.8,278.2,349.8,278.2s285.1-103.4,349.8-278.2
			c64.7-174.8,87-522.5,87-522.5S1243,495.6,1243,358.9z"/>
		<linearGradient id="SVGID_5_" gradientUnits="userSpaceOnUse" x1="1148.6389" y1="365.9708" x2="773.0468" y2="974.0731">
			<stop  offset="0" style="stop-color:#C9CD55"/>
			<stop  offset="0.5065" style="stop-color:#659C52"/>
			<stop  offset="1" style="stop-color:#287F50"/>
		</linearGradient>
		<path style="fill:url(#SVGID_5_);" d="M933.6,1220c-102.4-44.5-237.3-125.6-272.9-221.8c-45.6-123.2-69.5-344.1-78.6-447.8
			c56.9-24,99.3-69.2,115.5-130.9c58-8.4,150.9-19.6,234.3-19.8c85.2,3.2,179,13.7,238,21.2c15.4,56.6,54.5,103.8,115.2,129.4
			c-9.1,103.7-33,324.7-78.6,447.8C1171,1094.4,1036.2,1175.4,933.6,1220z"/>
	</g>
	<g>
		<g>
			<linearGradient id="SVGID_6_" gradientUnits="userSpaceOnUse" x1="854.0343" y1="941.9934" x2="641.2445" y2="1196.057">
				<stop  offset="0" style="stop-color:#53CD9F"/>
				<stop  offset="1" style="stop-color:#0D7A5C"/>
			</linearGradient>
			<path style="fill:url(#SVGID_6_);" d="M903.4,1179.6l-330.6,104.7c-14.9,4.7-30.9-3.5-35.6-18.5l-52.5-165.9
				c-4.7-14.9,3.5-30.9,18.5-35.6l330.6-104.7c14.9-4.7,30.9,3.5,35.6,18.5l52.5,165.9C926.6,1158.9,918.4,1174.8,903.4,1179.6z"/>
			
				<rect x="521.1" y="1092.5" transform="matrix(0.9533 -0.302 0.302 0.9533 -311.9803 224.7268)" style="fill:#F7CC7F;" width="99.4" height="57.8"/>
			
				<rect x="675.4" y="1014.9" transform="matrix(0.9533 -0.302 0.302 0.9533 -272.4726 278.2104)" style="fill:#B7D972;" width="176.2" height="10.8"/>
		</g>
		<g>
			<linearGradient id="SVGID_7_" gradientUnits="userSpaceOnUse" x1="540.5354" y1="1186.1508" x2="944.6817" y2="1186.1508">
				<stop  offset="0" style="stop-color:#C7A44F"/>
				<stop  offset="1" style="stop-color:#609A3F"/>
			</linearGradient>
			<path style="fill:url(#SVGID_7_);" d="M568.9,1301.7h347.3c15.7,0,28.4-12.7,28.4-28.4V1099c0-15.7-12.7-28.4-28.4-28.4H568.9
				c-15.7,0-28.4,12.7-28.4,28.4v174.3C540.5,1289,553.3,1301.7,568.9,1301.7z"/>
			
				<rect x="819.2" y="1116.6" transform="matrix(-1 -1.224647e-16 1.224647e-16 -1 1737.8722 2290.979)" style="fill:#B7D972;" width="99.5" height="57.9"/>
			
				<rect x="566.1" y="1101.9" transform="matrix(-1 -1.224647e-16 1.224647e-16 -1 1308.7299 2214.6003)" style="fill:#B7D972;" width="176.5" height="10.8"/>
			<rect x="540.5" y="1209.7" style="fill:#B7D972;" width="404.1" height="45.1"/>
		</g>
		<rect x="1063.6" y="925.6" style="fill:#F47257;" width="845.5" height="88.5"/>
		<g>
			<linearGradient id="SVGID_8_" gradientUnits="userSpaceOnUse" x1="1073.8114" y1="1009.032" x2="1803.1561" y2="1009.032">
				<stop  offset="0" style="stop-color:#C7A44F"/>
				<stop  offset="1" style="stop-color:#609A3F"/>
			</linearGradient>
			<path style="fill:url(#SVGID_8_);" d="M1684.2,1238.9C1493.5,1138,1286.4,1076,1073.8,1056c7.9-92.3,15.8-184.5,23.6-276.8
				c245.8,23.2,485.3,94.9,705.7,211.5C1763.5,1073.4,1723.8,1156.1,1684.2,1238.9z"/>
			<path style="fill:#B7D972;" d="M1092.6,1005.4c5.4-57.5,10.7-115.1,16.1-172.6c22.3,2.3,42.4-12.1,44.8-32.8
				c204.9,25.7,404.7,85.6,591.7,177.3c-8.3,18.9,1.4,42.2,21.6,52.7c-24.3,51.8-48.7,103.7-73,155.5c-18.5-9.6-40.4-1.7-48.8,17.2
				c-164.2-80.5-339.6-133.1-519.6-155.7C1127.7,1026.4,1113.1,1007.5,1092.6,1005.4z"/>
			<g>
				<path style="fill:#50BFA5;" d="M1532.5,1014.9c-17.2,49.5-70.2,74.7-119.3,59.6c-49.1-15.2-80.7-66.5-69.6-117.9
					c11-51.3,65.5-82,120.8-64.9C1519.7,908.6,1549.7,965.5,1532.5,1014.9z"/>
				<path style="fill:#3C8F7C;" d="M1412.8,1057c1.4-5.5,2.7-11,4.1-16.6c-7.4-2.4-14.4-5.8-20-9.4c-4.7-3-6.4-9.1-3.9-13.9
					c0.1-0.2,0.2-0.4,0.3-0.6c2.8-5.3,9.6-7,14.8-3.6c5.3,3.5,11.5,6.6,18.4,8.5c10,2.8,17.9,1,19.7-6c1.7-6.6-2.9-12.5-15-20.5
					c-17.6-11.6-28.8-23.7-24.9-40.7c3.5-15.4,17.7-24.6,38.5-22.8c1.4-5.5,2.7-11.1,4.1-16.6c6.1,1.7,12.2,3.4,18.3,5.2
					c-1.3,5.1-2.6,10.2-3.9,15.3c6.6,2.2,11.9,4.7,16.2,7.2c5.3,3.1,7.1,9.6,4.2,14.4l0,0c-3,5-9.8,6.5-15.1,3.2
					c-4-2.5-9-5-15.5-6.8c-11.9-3.4-16.9,0.5-18.1,5.4c-1.4,5.8,4.1,11.1,18,21.1c19.6,13.5,25.4,25.8,21.1,41.4
					c-4.3,15.4-18.9,25.1-39.8,22.8c-1.5,5.9-3.1,11.8-4.6,17.7C1424.1,1060.2,1418.4,1058.6,1412.8,1057z"/>
				<path style="fill:#50BFA5;" d="M1314.4,954.6c-48.6-11.2-97.7-20.3-147.1-27.4c1.1-8.9,2.3-17.7,3.4-26.6
					c50.1,7.1,99.9,16.4,149.1,27.8C1318.1,937.1,1316.2,945.9,1314.4,954.6z"/>
				<path style="fill:#50BFA5;" d="M1693.3,1089.2c-45.2-22.1-91.2-42.2-137.9-60.4c3-8.4,5.9-16.8,8.9-25.2
					c47.3,18.4,94,38.8,139.9,61.2C1700.5,1072.9,1696.9,1081,1693.3,1089.2z"/>
			</g>
		</g>
		<g>
			<linearGradient id="SVGID_9_" gradientUnits="userSpaceOnUse" x1="1092.6404" y1="927.6175" x2="1780.958" y2="927.6175">
				<stop  offset="0" style="stop-color:#C7A44F"/>
				<stop  offset="1" style="stop-color:#609A3F"/>
			</linearGradient>
			<path style="fill:url(#SVGID_9_);" d="M1781,942.7c-196.7,41.1-384,123.5-552.1,242.7c-45.4-78.4-90.8-156.7-136.2-235.1
				C1287,812.5,1503.5,717.3,1731,669.8C1747.6,760.7,1764.3,851.7,1781,942.7z"/>
			<path style="fill:#B7D972;" d="M1214.6,1133.3c-28-49.2-56-98.3-84-147.5c17.8-12.4,24.5-36.6,14.9-54.6
				C1311.1,821.4,1491.8,742,1680.7,696c4.4,20.3,24.5,32.7,45.2,28.2c10.8,56.7,21.6,113.4,32.4,170.1c-19,4.1-30.8,24.4-26.4,44.7
				c-165.9,40.4-324.6,110.2-470,206.6C1252.2,1127.6,1231,1121.9,1214.6,1133.3z"/>
			<g>
				<linearGradient id="SVGID_10_" gradientUnits="userSpaceOnUse" x1="1365.389" y1="895.1154" x2="1548.892" y2="895.1154">
					<stop  offset="0" style="stop-color:#C7A44F"/>
					<stop  offset="1" style="stop-color:#609A3F"/>
				</linearGradient>
				<path style="fill:url(#SVGID_10_);" d="M1544.6,861.1c14.8,50.3-10.3,104-55,123.3c-44.7,19.1-96.5-1.6-116.9-49.5
					c-20.4-47.8,2.8-106.9,53.1-128.5C1476.2,784.8,1529.9,810.9,1544.6,861.1z"/>
				<path style="fill:#B7D972;" d="M1479.7,970.8c-2.1-5.3-4.1-10.5-6.2-15.8c-6.8,2.8-13.9,4.6-20,5.3c-5.1,0.6-9.7-3.1-10.6-8.6
					c0-0.2-0.1-0.4-0.1-0.7c-0.9-6,3.2-11.7,8.9-12.3c5.8-0.6,12.1-2.1,18.3-4.9c9-4.2,13.8-10.6,11.2-17.3c-2.4-6.3-9-8.1-22.5-6.8
					c-19.4,1.9-34.4-0.5-41-16.5c-6-14.5-0.6-30.9,15.7-42.6c-2.1-5.3-4.1-10.5-6.2-15.8c5.4-2.5,10.9-5,16.3-7.5
					c1.9,4.9,3.7,9.8,5.6,14.7c6.1-2.5,11.4-3.9,16-4.6c5.6-0.9,10.6,3.1,11.1,8.8l0,0c0.6,5.9-3.6,11.4-9.4,12.1
					c-4.3,0.6-9.4,1.8-15.2,4.4c-10.7,4.9-12.2,11.2-10.4,15.8c2.2,5.5,9.2,6.3,25,5.4c22-1.7,33.1,4.3,38.6,19.4
					c5.4,15,0,32-16.7,43.4c2.2,5.7,4.3,11.4,6.5,17C1489.7,966.1,1484.7,968.4,1479.7,970.8z"/>
				<path style="fill:#50BFA5;" d="M1350.2,951.9c-42.1,22-83.4,45.9-123.8,71.8c-4.1-7.8-8.2-15.6-12.2-23.3
					c40.9-26.2,82.8-50.5,125.5-72.8C1343.2,935.7,1346.7,943.8,1350.2,951.9z"/>
				<linearGradient id="SVGID_11_" gradientUnits="userSpaceOnUse" x1="1561.8372" y1="824.6437" x2="1704.6055" y2="824.6437">
					<stop  offset="0" style="stop-color:#C7A44F"/>
					<stop  offset="1" style="stop-color:#609A3F"/>
				</linearGradient>
				<path style="fill:url(#SVGID_11_);" d="M1704.6,817.9c-45.7,11.2-90.8,24.4-135.3,39.7c-2.5-8.6-5-17.1-7.4-25.7
					c45.1-15.5,90.9-28.9,137.2-40.3C1700.9,800.4,1702.8,809.2,1704.6,817.9z"/>
			</g>
		</g>
		<g>
			<linearGradient id="SVGID_12_" gradientUnits="userSpaceOnUse" x1="1120.5149" y1="998.1218" x2="1818.6946" y2="998.1218">
				<stop  offset="0" style="stop-color:#C7A44F"/>
				<stop  offset="1" style="stop-color:#609A3F"/>
			</linearGradient>
			<path style="fill:url(#SVGID_12_);" d="M1804.6,1094.2c-204.6-12.4-409.5,17.6-603.8,88.5c-26.8-87.9-53.5-175.7-80.3-263.6
				c224.8-81.9,461.6-116.7,698.2-102.3C1814,909.2,1809.3,1001.7,1804.6,1094.2z"/>
			<path style="fill:#B7D972;" d="M1198.8,1128.4c-16.3-55-32.6-110-48.9-165c20.5-7.3,32.8-28.9,27.4-48.9
				c189.7-62.4,387.3-91.4,585.4-85.8c-0.4,20.8,16.7,38.1,38.2,39.2c-2.5,57.7-5,115.5-7.5,173.2c-19.8-1-36.2,15.5-36.6,36.3
				c-173.9-4.9-347.4,20.5-514.1,75.3C1237.5,1132.9,1217.7,1121.7,1198.8,1128.4z"/>
			<g>
				<linearGradient id="SVGID_13_" gradientUnits="userSpaceOnUse" x1="1400.4399" y1="962.5873" x2="1589.5613" y2="962.5873">
					<stop  offset="0" style="stop-color:#C7A44F"/>
					<stop  offset="1" style="stop-color:#609A3F"/>
				</linearGradient>
				<path style="fill:url(#SVGID_13_);" d="M1589.4,952.5c3,52.6-34.5,97.9-83.2,104.7c-48.8,6.7-95.3-27.1-104.4-78.9
					c-9-51.6,27.7-102.7,82.6-110.2C1539.3,860.5,1586.5,900,1589.4,952.5z"/>
				<path style="fill:#B7D972;" d="M1499.4,1041.4c-0.8-5.6-1.6-11.3-2.4-16.9c-7.4,0.9-14.8,0.7-21.1-0.2
					c-5.2-0.8-8.9-5.6-8.5-11.1c0-0.2,0-0.4,0.1-0.7c0.5-6,5.9-10.5,11.7-9.5c5.9,1,12.5,1.2,19.3,0.1c9.9-1.6,16.1-6.6,15.2-13.7
					c-0.9-6.8-7.1-10.2-20.7-12.5c-19.7-3.3-34-9.7-36.8-26.9c-2.6-15.6,6.6-30,25.5-37.1c-0.8-5.6-1.7-11.3-2.5-16.9
					c6-1,12-2,18-2.9c0.7,5.2,1.4,10.5,2.2,15.7c6.7-0.8,12.2-0.7,16.9-0.2c5.8,0.6,9.7,5.8,9,11.5l0,0c-0.8,5.9-6.2,10.1-12.1,9.3
					c-4.4-0.6-9.8-0.8-16.1,0.2c-11.7,1.9-14.7,7.6-14,12.5c0.9,5.9,7.7,8.5,23.6,11.8c22.2,4.2,31.8,13,33.7,29
					c1.9,15.9-7.5,30.9-26.7,37.6c0.8,6.1,1.6,12.1,2.4,18.2C1510.5,1039.6,1505,1040.5,1499.4,1041.4z"/>
				<path style="fill:#50BFA5;" d="M1375.5,988.8c-46.9,10.1-93.4,22.3-139.4,36.6c-2.2-8.6-4.5-17.2-6.7-25.8
					c46.7-14.5,93.8-26.9,141.4-37.1C1372.3,971.2,1373.9,980,1375.5,988.8z"/>
				<path style="fill:#50BFA5;" d="M1758,953.1c-47.9-1.3-95.7-0.4-143.4,2.5c-0.5-8.9-0.9-17.9-1.4-26.8c48.4-3,96.9-3.9,145.4-2.6
					C1758.4,935.2,1758.2,944.1,1758,953.1z"/>
			</g>
		</g>
		<linearGradient id="SVGID_14_" gradientUnits="userSpaceOnUse" x1="1063.567" y1="1111.6608" x2="1909.0616" y2="1111.6608">
			<stop  offset="0" style="stop-color:#53CD9F"/>
			<stop  offset="1" style="stop-color:#0D7A5C"/>
		</linearGradient>
		<rect x="1063.6" y="925.6" style="fill:url(#SVGID_14_);" width="845.5" height="372.1"/>
		<linearGradient id="SVGID_15_" gradientUnits="userSpaceOnUse" x1="1655.9218" y1="1250.2142" x2="1909.0616" y2="1250.2142">
			<stop  offset="0" style="stop-color:#00503E"/>
			<stop  offset="1" style="stop-color:#023222"/>
		</linearGradient>
		<path style="fill:url(#SVGID_15_);" d="M1909.1,1202.7h-209.2c-9.3,0-16.8,7.9-16.8,17.6l0,0c0,9.7,7.5,17.6,16.8,17.6h-27.1
			c-9.3,0-16.8,7.9-16.8,17.6l0,0c0,9.7,7.5,17.6,16.8,17.6h4.7c-9.3,0-16.8,7.9-16.8,17.6c0,2.5,0.5,4.9,1.4,7.1h247V1202.7z"/>
		<linearGradient id="SVGID_16_" gradientUnits="userSpaceOnUse" x1="1094.7245" y1="958.376" x2="1864.3945" y2="958.376">
			<stop  offset="0" style="stop-color:#00503E"/>
			<stop  offset="1" style="stop-color:#023222"/>
		</linearGradient>
		<rect x="1094.7" y="943.9" style="fill:url(#SVGID_16_);" width="769.7" height="28.9"/>
		<linearGradient id="SVGID_17_" gradientUnits="userSpaceOnUse" x1="1104.5007" y1="1025.4071" x2="1463.3715" y2="1025.4071">
			<stop  offset="0" style="stop-color:#00503E"/>
			<stop  offset="1" style="stop-color:#023222"/>
		</linearGradient>
		<rect x="1104.5" y="1020.6" style="fill:url(#SVGID_17_);" width="358.9" height="9.6"/>
		<g>
			<path style="fill:#EDFDFC;" d="M1809.6,1088.6c25.4,36.1,16.6,86-19.5,111.3c-36.1,25.4-86,16.6-111.3-19.5
				c-25.4-36.1-16.6-86,19.5-111.3C1734.4,1043.7,1784.2,1052.5,1809.6,1088.6z"/>
			<linearGradient id="SVGID_18_" gradientUnits="userSpaceOnUse" x1="1778.3983" y1="999.6867" x2="1743.3156" y2="1137.954">
				<stop  offset="0" style="stop-color:#C9CD55"/>
				<stop  offset="0.5065" style="stop-color:#659C52"/>
				<stop  offset="1" style="stop-color:#287F50"/>
			</linearGradient>
			<path style="fill:url(#SVGID_18_);" d="M1799.1,1096c21.3,30.3,13.9,72.1-16.4,93.4c-30.3,21.3-72.1,13.9-93.4-16.4
				c-21.3-30.3-13.9-72.1,16.4-93.4C1736,1058.3,1777.8,1065.7,1799.1,1096z"/>
			<g>
				<path style="fill:#FFFFFF;" d="M1751.9,1181.7l-2.9-10.8c-4.9,1.1-10,1.5-14.3,1.3c-3.6-0.2-6.4-3.1-6.5-6.7l0-0.4
					c-0.1-4,3.3-7.2,7.2-6.9c4,0.3,8.5,0,12.9-1.2c6.5-1.8,10.2-5.5,9-10c-1.2-4.3-5.5-6.1-14.7-6.6c-13.3-0.8-23.1-4.2-26.1-15.3
					c-2.7-10,2.2-19.8,13.7-25.4l-2.9-10.8l11.1-3l2.7,10c4.2-0.9,7.7-1.3,10.8-1.3c3.7,0,6.8,3,6.8,6.7l0,0c0,3.9-3.1,7-7,6.9
					c-2.9-0.1-6.4,0.2-10.4,1.3c-7.4,2-8.9,5.8-8.1,9c1,3.8,5.6,5.1,16.3,6.1c14.8,1.1,22,5.9,24.8,16.1
					c2.7,10.1-2.1,20.7-14.6,26.5l3.1,11.6L1751.9,1181.7z"/>
			</g>
		</g>
		<g>
			
				<ellipse transform="matrix(0.607 -0.7947 0.7947 0.607 -197.6636 1669.2219)" style="fill:#EDFDFC;" cx="1588.9" cy="1034.5" rx="79.9" ry="79.9"/>
			<linearGradient id="SVGID_19_" gradientUnits="userSpaceOnUse" x1="1608.6099" y1="956.606" x2="1573.527" y2="1094.8734">
				<stop  offset="0" style="stop-color:#C9CD55"/>
				<stop  offset="0.5065" style="stop-color:#659C52"/>
				<stop  offset="1" style="stop-color:#287F50"/>
			</linearGradient>
			<circle style="fill:url(#SVGID_19_);" cx="1588.9" cy="1034.5" r="67.1"/>
			<g>
				<path style="fill:#EDFDFC;" d="M1568.1,1077.5l3.8-10.5c-4.7-1.9-9-4.5-12.4-7.2c-2.8-2.2-3.5-6.2-1.4-9.2l0.2-0.4
					c2.2-3.3,6.8-4,9.9-1.5c3.1,2.5,6.9,4.9,11.3,6.4c6.3,2.3,11.5,1.4,13.1-3c1.5-4.2-1.1-8.2-8.3-13.9
					c-10.4-8.3-16.5-16.8-12.6-27.5c3.5-9.8,13.2-14.9,25.9-12.9l3.8-10.5l10.9,3.9l-3.5,9.8c4,1.6,7.1,3.4,9.6,5.1
					c3.1,2.1,3.8,6.3,1.7,9.4l0,0c-2.2,3.2-6.6,3.9-9.7,1.7c-2.3-1.7-5.3-3.5-9.2-4.9c-7.2-2.6-10.7-0.4-11.8,2.8
					c-1.3,3.7,1.7,7.4,9.8,14.3c11.5,9.4,14.6,17.5,11,27.4c-3.6,9.9-13.6,15.8-27.2,13.3l-4.1,11.3L1568.1,1077.5z"/>
			</g>
		</g>
		<linearGradient id="SVGID_20_" gradientUnits="userSpaceOnUse" x1="1502.4136" y1="1177.5479" x2="1864.3945" y2="1177.5479">
			<stop  offset="0" style="stop-color:#00503E"/>
			<stop  offset="1" style="stop-color:#023222"/>
		</linearGradient>
		<rect x="1502.4" y="1080.5" style="fill:url(#SVGID_20_);" width="362" height="194"/>
		<linearGradient id="SVGID_21_" gradientUnits="userSpaceOnUse" x1="1655.9218" y1="1238.6306" x2="1864.3945" y2="1238.6306">
			<stop  offset="0" style="stop-color:#00503E"/>
			<stop  offset="1" style="stop-color:#023222"/>
		</linearGradient>
		<path style="fill:url(#SVGID_21_);" d="M1683.1,1220.3L1683.1,1220.3c0,9.7,7.5,17.6,16.8,17.6h-27.1c-9.3,0-16.8,7.9-16.8,17.6
			l0,0c0,9.7,7.5,17.6,16.8,17.6h4.7c-2.4,0-4.7,0.5-6.7,1.5h193.7v-71.8h-164.5C1690.6,1202.7,1683.1,1210.6,1683.1,1220.3z"/>
		<g>
			<g>
				<linearGradient id="SVGID_22_" gradientUnits="userSpaceOnUse" x1="125.9055" y1="1301.5259" x2="2090.5544" y2="1301.5259">
					<stop  offset="0" style="stop-color:#53CD9F"/>
					<stop  offset="1" style="stop-color:#0D7A5C"/>
				</linearGradient>
				<path style="fill:url(#SVGID_22_);" d="M125.9,1301.5L125.9,1301.5c0,3.1,3.5,5.7,7.8,5.7h1949c4.3,0,7.8-2.5,7.8-5.7l0,0
					c0-3.1-3.5-5.7-7.8-5.7h-1949C129.4,1295.9,125.9,1298.4,125.9,1301.5z"/>
			</g>
			<linearGradient id="SVGID_23_" gradientUnits="userSpaceOnUse" x1="1657.9794" y1="1247.9843" x2="1935.8893" y2="1333.2836">
				<stop  offset="0" style="stop-color:#C9CD55"/>
				<stop  offset="0.5065" style="stop-color:#659C52"/>
				<stop  offset="1" style="stop-color:#287F50"/>
			</linearGradient>
			<path style="fill:url(#SVGID_23_);" d="M1911.2,1308.2h-216.1c-8.7,0-15.7-7-15.7-15.7l0,0c0-8.7,7-15.7,15.7-15.7h216.1
				c8.7,0,15.7,7,15.7,15.7l0,0C1926.9,1301.2,1919.9,1308.2,1911.2,1308.2z"/>
			<path style="fill:#EDFDFC;" d="M1906.8,1276.8h-216.1c-8.7,0-15.7-7-15.7-15.7v0c0-8.7,7-15.7,15.7-15.7h216.1
				c8.7,0,15.7,7,15.7,15.7v0C1922.5,1269.8,1915.5,1276.8,1906.8,1276.8z"/>
			<linearGradient id="SVGID_24_" gradientUnits="userSpaceOnUse" x1="1677.3955" y1="1184.7253" x2="1955.3055" y2="1270.0247">
				<stop  offset="0" style="stop-color:#C9CD55"/>
				<stop  offset="0.5065" style="stop-color:#659C52"/>
				<stop  offset="1" style="stop-color:#287F50"/>
			</linearGradient>
			<path style="fill:url(#SVGID_24_);" d="M1932.1,1245.5h-216.1c-8.7,0-15.7-7-15.7-15.7l0,0c0-8.7,7-15.7,15.7-15.7h216.1
				c8.7,0,15.7,7,15.7,15.7l0,0C1947.8,1238.4,1940.8,1245.5,1932.1,1245.5z"/>
		</g>
		<g>
			<g>
				<g>
					<path style="fill:#F7A491;" d="M1910.2,1164.7c0,0-1.8,21.8-0.3,28.9c0.8,3.8,5,11.6,3.1,15.2c-1.9,3.6-4.2,4.5-4.2,4.5
						l-50.4,0.8c-2.7,0-0.9-1.7,1.3-3.3c3.6-2.6,6.6-4.4,18.1-9.9c0.8-0.4,3.5-2.1,4.5-2.7c2.5-1.5,5-3.9,7.2-6.3
						c3.6-4,3.9-23.2,3.9-23.2L1910.2,1164.7z"/>
					<path style="fill:#332914;" d="M1870.8,874.5c0,0-21.7-10.7-17.5,12.6c4.2,23.2,35.9,284.6,35.9,284.6l29.7,1.7
						c0,0,3.8-87.1,3-99.7c-0.8-12.5-5.8-31.9-5.8-31.9l-2.5-77.3l-28.1-95.5L1870.8,874.5z"/>
					<linearGradient id="SVGID_25_" gradientUnits="userSpaceOnUse" x1="1853.2941" y1="1205.6725" x2="1913.5365" y2="1205.6725">
						<stop  offset="0" style="stop-color:#FB9A2B"/>
						<stop  offset="1" style="stop-color:#E65925"/>
					</linearGradient>
					<path style="fill:url(#SVGID_25_);" d="M1882.2,1198.3c13.3,3.4,23.2,1.1,28.7-1.1c1.4,4,3.3,8.9,2.3,11.8
						c-1.2,3.5-2.8,5.1-4.4,5.1c-12.2,0.3-44.8,0-54.1,0.1c-1.3,0-2-1.5-1.2-2.5C1856,1209,1881.2,1198.9,1882.2,1198.3z"/>
					<path style="fill:#F7A491;" d="M1853.3,717.4c0,0-18.3-35.3-21.2-48.2c-2.8-12.9-12.7-78.1-11.9-82.3
						c0.8-4.2,16.4-14.3,14.5-17.9c-1.9-3.6-16.8-3.6-20.1-3.3c-3.4,0.3-10.2,2.3-13.1,4.7c-2.9,2.4,3.3,80.5,5.1,97.4
						c1.9,16.8,24.6,68.6,24.6,68.6L1853.3,717.4z"/>
					<g>
						<path style="fill:#F7A491;" d="M1996.1,992.2c0,0,15.1-15.9,18.5-22.3c1.8-3.4,3.4-12.2,7.2-13.7c3.8-1.6,6.1-0.8,6.1-0.8
							l39.7,31.2c2.2,1.7-0.3,1.9-3.1,1.8c-4.5-0.2-7.8-0.7-20.3-3.8c-0.8-0.2-4-0.6-5.2-0.8c-2.9-0.4-6.4-0.2-9.6,0.3
							c-5.3,0.8-17.7,15.5-17.7,15.5L1996.1,992.2z"/>
						<linearGradient id="SVGID_26_" gradientUnits="userSpaceOnUse" x1="2015.9204" y1="972.8808" x2="2070.8" y2="972.8808">
							<stop  offset="0" style="stop-color:#FB9A2B"/>
							<stop  offset="1" style="stop-color:#E65925"/>
						</linearGradient>
						<path style="fill:url(#SVGID_26_);" d="M2038.9,983.8c-8.2-11-17.3-15.5-23-17.2c1.4-4,2.9-9.2,5.5-10.8
							c3.2-2,5.3-1.6,6.6-0.6c9.7,7.4,34.9,27.8,42.2,33.5c1,0.8,0.6,2.4-0.6,2.6C2066.1,992,2040.1,983.9,2038.9,983.8z"/>
						<path style="fill:#002A24;" d="M1996.4,706.6c-9.4-19.7-30.3-30.6-50.5-25.3c-7.2-9.8-18.4-16.7-30.1-18.3
							c-23-3.3-52.7,7.9-49.7,31.9c-7.3,16.8-5.5,39.9,9,51.3c-2.7,22.1,19.5,41.7,45.7,39c10.5,14.5,28.9,23.1,46,19.8
							c4.1-0.8,10.4-2.3,11.4-2.1c-1.3-0.2,29.9,20.3,51.4-16.1C2051.7,749.6,2030.1,708,1996.4,706.6z"/>
						<path style="fill:#473B1E;" d="M1862,882.9c0,0,48.6-21.6,49.4-19.2c6.1,19.6,25.1,13.3,36.3,47.9
							c4.7,14.5,9.6,110.8,9.6,110.8s19.2-15.9,46.6-43.7c2.1-2.1,22.7,17.5,22.7,17.5c-54.4,73.5-77.8,77.3-86.9,73.2
							c-18.9-8.6-58.9-128.7-58.8-128.7C1876,931.3,1862,882.9,1862,882.9z"/>
						<path style="fill:#F7A491;" d="M1942.6,747.2c0,0,70.3-0.1,85.3-1c13.6-0.8,67.6,0.6,69.7,0.3c2.1-0.2,16.1-23.9,18.4-21.3
							c2.3,2.5-7.8,11.7-4.6,14.1c3.1,2.4,36.6-3,36.2-0.5c-0.8,4.6-20.4,4-20.4,6.3c0,2.2,20.5-1.3,21.9,2.5
							c1.4,3.7-19.7,1.5-20.5,3.2c-0.8,1.7,19.5,4.7,17.4,8.2c-1.1,1.9-18-3.1-18-0.6c0.1,2.6,12.4,8.4,10.9,10.4
							c-1.5,2-9.7-6.3-16.8-6.4c-7.2-0.1-12.3-3.8-23.7-0.7c-5.6,1.5-48.7,6.8-85.1,9.9c-37.3,3.2-67.9,4.2-67.9,4.2L1942.6,747.2z"
							/>
						<linearGradient id="SVGID_27_" gradientUnits="userSpaceOnUse" x1="1828.6548" y1="696.5777" x2="1928.1705" y2="885.5203">
							<stop  offset="0" style="stop-color:#FB9A2B"/>
							<stop  offset="1" style="stop-color:#E65925"/>
						</linearGradient>
						<path style="fill:url(#SVGID_27_);" d="M1838.4,796.9c-0.9-11.3,1.3-20,1.8-23.7c-3.4-11.7-10.7-36.7-13.3-41.6
							c0,0,12.2-23.5,24.8-23.4c0,0,12.8,28.8,22.7,34c0.1,0,3.5,1.5,5,1.5c9.5-0.1,42.9-1.1,49.1-1.2l-3.5,47.3
							c-24.2,47.4-17.6,72.3-8.4,81.5c4.3,4.3-60.3,21.9-63.3,15.8C1849.8,879.8,1840.3,819.7,1838.4,796.9z"/>
						<linearGradient id="SVGID_28_" gradientUnits="userSpaceOnUse" x1="1889.686" y1="664.4326" x2="1989.202" y2="853.3757">
							<stop  offset="0" style="stop-color:#FB9A2B"/>
							<stop  offset="1" style="stop-color:#E65925"/>
						</linearGradient>
						<path style="fill:url(#SVGID_28_);" d="M1911.6,744.2c6.2-2.9,50.7-1.5,50.7-1.5s6.2,31,1.2,38.5c0,0-39.8,5.9-38.7,9.2
							L1911.6,744.2z"/>
						<path style="fill:#F7A491;" d="M1899.9,724.3c0,0-0.8,16.9,0,24c0.8,7-7.2,23.6-22.2,23.8c-14.9,0.3-2.2-15.8-0.9-22.8
							c1.3-6.9,2.9-34.1,2.9-34.1L1899.9,724.3z"/>
						<path style="fill:#F47458;" d="M1879.7,715.3c0,0-0.4,6.3-0.9,13.6c4.7,5.6,11.9,8.5,20.7,5.1c0.1-5.2,0.3-9.6,0.3-9.6
							L1879.7,715.3z"/>
						<path style="fill:#F7A491;" d="M1901.1,673.9c0,0,8.5,2.5,13.2,11c4.7,8.5,6.7,32.5-11.5,42.4c-18.2,9.9-30.7-6.7-29.9-22.1
							C1873.8,689.9,1878.5,669.6,1901.1,673.9z"/>
						<path style="fill:#F7A491;" d="M1869.3,700.2c1.2,3.8,4,6.3,6.2,5.6c2.2-0.7,3-4.4,1.8-8.2c-1.2-3.8-4-6.3-6.2-5.6
							C1868.8,692.7,1868,696.4,1869.3,700.2z"/>
						<path style="fill:#002A24;" d="M1898.6,673.2c0,0,9.3,25.3,18.7,28.2c9.5,2.9,8.5,15.2,8.5,15.2s1.8-28.6-6.8-35.7
							C1910.4,673.7,1898.6,673.2,1898.6,673.2z"/>
						<path style="fill:#F7A491;" d="M1913.1,706.2c-1.5,3.9-0.7,7.9,2,8.9c2.6,1,6-1.3,7.6-5.2c1.5-3.9,0.7-7.9-2-8.9
							C1918.1,700,1914.7,702.3,1913.1,706.2z"/>
					</g>
					<path style="fill:#F47458;" d="M1798.8,576.4c0,0,20.6,0.9,23,0.9c2.4,0,9.5-7.3,9.5-7.3L1798.8,576.4z"/>
				</g>
				<g>
					<path style="fill:#EDFDFC;" d="M1866.2,451.5c25.4,36.1,16.6,86-19.5,111.3c-36.1,25.4-86,16.6-111.3-19.5
						c-25.4-36.1-16.6-86,19.5-111.3C1791,406.6,1840.8,415.3,1866.2,451.5z"/>
					<linearGradient id="SVGID_29_" gradientUnits="userSpaceOnUse" x1="1816.5593" y1="416.1007" x2="1786.292" y2="571.5654">
						<stop  offset="0" style="stop-color:#C9CD55"/>
						<stop  offset="0.5065" style="stop-color:#659C52"/>
						<stop  offset="1" style="stop-color:#287F50"/>
					</linearGradient>
					<path style="fill:url(#SVGID_29_);" d="M1855.6,458.8c21.3,30.3,13.9,72.1-16.4,93.4c-30.3,21.3-72.1,13.9-93.4-16.4
						c-21.3-30.3-13.9-72.1,16.4-93.4C1792.5,421.2,1834.4,428.5,1855.6,458.8z"/>
					<g>
						<path style="fill:#EDFDFC;" d="M1808.5,544.5l-2.9-10.8c-4.9,1.1-10,1.5-14.3,1.3c-3.6-0.2-6.4-3.1-6.5-6.7l0-0.4
							c-0.1-4,3.3-7.1,7.2-6.9c4,0.3,8.5,0,12.9-1.2c6.5-1.8,10.2-5.5,9-10c-1.2-4.3-5.5-6.1-14.7-6.6c-13.3-0.8-23.1-4.2-26.1-15.3
							c-2.7-10,2.2-19.8,13.7-25.5l-2.9-10.8l11.2-3l2.7,10c4.2-0.9,7.7-1.3,10.8-1.3c3.7,0,6.8,3,6.8,6.7l0,0c0,3.9-3.1,7-7,6.9
							c-2.9-0.1-6.4,0.2-10.4,1.3c-7.4,2-8.9,5.8-8.1,9c1,3.8,5.6,5.1,16.3,6.1c14.8,1.1,22,5.9,24.8,16.1
							c2.7,10.1-2.1,20.7-14.6,26.5l3.1,11.6L1808.5,544.5z"/>
					</g>
				</g>
			</g>
			<path style="fill:#F7A491;" d="M1821.8,577.3l8.5-7.6c0,0-4-4.8-2.3-5.7c2.7-1.5,7.4,4.3,6.9,5.7c-0.4,1.4-5.4,5.9-5.4,5.9
				L1821.8,577.3z"/>
		</g>
	</g>
	<linearGradient id="SVGID_30_" gradientUnits="userSpaceOnUse" x1="274.0067" y1="289.5157" x2="932.5524" y2="1072.8004">
		<stop  offset="0" style="stop-color:#53CD9F"/>
		<stop  offset="1" style="stop-color:#0D7A5C"/>
	</linearGradient>
	<path style="fill:url(#SVGID_30_);" d="M237.8,293.4l17.2-8.9l17.1,9.1c1.9,1,4.2-0.6,3.9-2.8l-3.2-19.1l13.9-13.4
		c1.6-1.5,0.7-4.2-1.4-4.5l-19.1-2.9l-8.5-17.4c-1-2-3.8-2-4.8,0l-8.7,17.3l-19.2,2.7c-2.2,0.3-3.1,3-1.5,4.5l13.8,13.6l-3.4,19.1
		C233.6,292.8,235.9,294.4,237.8,293.4z"/>
	<linearGradient id="SVGID_31_" gradientUnits="userSpaceOnUse" x1="1131.4141" y1="-431.346" x2="1789.9597" y2="351.9388">
		<stop  offset="0" style="stop-color:#53CD9F"/>
		<stop  offset="1" style="stop-color:#0D7A5C"/>
	</linearGradient>
	<polygon style="fill:url(#SVGID_31_);" points="1741.4,239.3 1744.2,257.9 1714.8,265.7 1715.4,293.4 1694.3,302.7 1699.1,313.4 
		1727.3,300.9 1726.7,274.6 1757.3,266.6 1753.1,238.6 	"/>
	<linearGradient id="SVGID_32_" gradientUnits="userSpaceOnUse" x1="1069.9362" y1="-379.6616" x2="1728.4825" y2="403.6241">
		<stop  offset="0" style="stop-color:#53CD9F"/>
		<stop  offset="1" style="stop-color:#0D7A5C"/>
	</linearGradient>
	<polygon style="fill:url(#SVGID_32_);" points="1440.6,0 1436.9,18.4 1406.6,15.6 1397.8,41.9 1374.7,43.5 1375.6,55.2 1406.3,53 
		1414.7,28.1 1446.2,31 1451.9,3.3 	"/>
	<g>
		<linearGradient id="SVGID_33_" gradientUnits="userSpaceOnUse" x1="1535.6774" y1="-75.4904" x2="1515.499" y2="482.1652">
			<stop  offset="0" style="stop-color:#FB9A2B"/>
			<stop  offset="1" style="stop-color:#E65925"/>
		</linearGradient>
		<path style="fill:url(#SVGID_33_);" d="M1488.4,447.2l5.7-14.1c-6.2-2.8-12-6.6-16.5-10.3c-3.7-3.1-4.4-8.6-1.5-12.5l0.3-0.5
			c3.2-4.3,9.4-5.1,13.4-1.6c4.1,3.6,9.2,6.9,15,9.2c8.4,3.4,15.5,2.5,17.9-3.5c2.3-5.6-1-11.1-10.5-19.2
			c-13.7-11.7-21.5-23.5-15.7-37.9c5.3-13,18.6-19.6,35.7-16.3l5.7-14.1l14.5,5.9l-5.3,13c5.3,2.4,9.4,4.9,12.7,7.4
			c4,3,4.9,8.8,1.9,12.8l0,0c-3.1,4.2-9.1,5-13.2,1.8c-3.1-2.4-7-5-12.3-7.1c-9.6-3.9-14.4-1-16.1,3.2c-2,4.9,2,10.1,12.6,19.9
			c15.1,13.3,19,24.3,13.6,37.7c-5.3,13.2-19.2,20.7-37.4,16.8l-6.1,15.1L1488.4,447.2z"/>
	</g>
	<linearGradient id="SVGID_34_" gradientUnits="userSpaceOnUse" x1="901.1701" y1="-237.7719" x2="1559.7194" y2="545.5172">
		<stop  offset="0" style="stop-color:#53CD9F"/>
		<stop  offset="1" style="stop-color:#0D7A5C"/>
	</linearGradient>
	<path style="fill:url(#SVGID_34_);" d="M1407,332.5c1.5,2.4,1.1,5.5-1,7.4c-4.1,3.8-10.5,8.1-18.4,11.1
		c-11.5,4.3-24.3,4.7-35.9-0.5c-7.2-3.3-13.8-9.2-18.5-16.8l-6.8,2.6c-2.3,0.9-4.9-0.3-5.8-2.6l-0.1-0.2c-0.9-2.3,0.3-4.9,2.6-5.8
		l5.6-2.1c-0.9-1.9-1.5-3-1.9-4.1c-0.7-1.7-1.3-3.9-1.8-6.3l-5.8,2.2c-2.3,0.9-4.9-0.3-5.8-2.6l0,0c-0.9-2.3,0.3-4.9,2.6-5.8l7-2.6
		c-1.1-8.8,0.1-17.4,3.3-24.6c5.6-12.3,16-21,28.1-25.5c7-2.6,12.8-3.4,17.5-3.5c3.3,0,5.9,2.5,6.1,5.8l0,0.1
		c0.2,3.4-2.5,6.2-5.8,6.3c-3.8,0.2-8.4,0.9-13.6,2.9c-7.7,2.9-14.5,8.2-18.3,16.4c-2.2,4.8-3.2,10.6-2,16.3l39.3-14.8
		c2.3-0.9,4.9,0.3,5.8,2.6l0,0c0.9,2.3-0.3,4.9-2.6,5.8l-41.1,15.4c0.5,2,1.1,4,1.6,5.2c0.6,1.6,1.2,3.1,2.1,5.2l41.1-15.4
		c2.4-0.9,5,0.3,5.9,2.7l0,0c0.9,2.4-0.3,5-2.7,5.9l-39.4,14.8c3.1,4.6,7.2,8.1,11.5,10c8.6,3.8,16.5,3.6,25.2,0.3
		c5.3-2,9.8-4.7,13.1-7.4C1401.1,328.8,1405.2,329.5,1407,332.5L1407,332.5z"/>
	<linearGradient id="SVGID_35_" gradientUnits="userSpaceOnUse" x1="502.759" y1="97.1923" x2="1161.3035" y2="880.4757">
		<stop  offset="0" style="stop-color:#53CD9F"/>
		<stop  offset="1" style="stop-color:#0D7A5C"/>
	</linearGradient>
	<polygon style="fill:url(#SVGID_35_);" points="583.4,166.7 565.5,168.5 559.4,140.1 533,139.5 525,119 514.6,123.1 525.3,150.5 
		550.4,151 556.7,180.6 583.6,177.8 	"/>
	<g>
		<linearGradient id="SVGID_36_" gradientUnits="userSpaceOnUse" x1="864.6653" y1="-46.5868" x2="1160.0027" y2="355.1458">
			<stop  offset="0" style="stop-color:#53CD9F"/>
			<stop  offset="1" style="stop-color:#0D7A5C"/>
		</linearGradient>
		<path style="fill:url(#SVGID_36_);" d="M932.9,65.3l16,5.3c0,0,25.4-8.2,27.9-13.4c2.5-5.2,3.2-17.7,6.8-18
			c3.6-0.3,10.6,0.8,12.2,9.4c1.2,6.2-7.9,24.2-6.5,26.2c0.9,1.2,10,4.5,16.7,6.8c4.4,1.5,7.6,5.4,8.2,10.1l0,0
			c0.5,3.2-1.3,6.2-4.3,7.4l-4.6,1.8l1.5,4.8c1.1,3.5-0.8,7.3-4.3,8.5l-3.6,1.2l1.1,2.9c1.5,3.7-0.6,8-4.4,9.1l-3.1,0.9l0.1,0.8
			c0.5,3.5-1.6,6.8-5,7.7l-3.1,0.8L942,123.3c-4-1.3-7.7-3.5-10.8-6.3l-14.1-7.5c-1.5-0.8-2.2-2.6-1.6-4.3l13.1-37.8
			C929.1,65.7,931.1,64.7,932.9,65.3z"/>
	</g>
	<linearGradient id="SVGID_37_" gradientUnits="userSpaceOnUse" x1="2047.9547" y1="-56.9537" x2="2027.7764" y2="500.7023">
		<stop  offset="0" style="stop-color:#FB9A2B"/>
		<stop  offset="1" style="stop-color:#E65925"/>
	</linearGradient>
	<path style="fill:url(#SVGID_37_);" d="M2035.2,556.9l4-20l18.8-8c2.1-0.9,2.3-3.9,0.3-5l-17.8-10l-1.8-20.4
		c-0.2-2.3-3-3.4-4.7-1.8l-15,13.8l-19.9-4.6c-2.3-0.5-4.1,1.8-3.2,3.9l8.5,18.6l-10.5,17.5c-1.2,2,0.4,4.5,2.7,4.2l20.3-2.3
		l13.4,15.4C2031.8,559.9,2034.7,559.2,2035.2,556.9z"/>
	<linearGradient id="SVGID_38_" gradientUnits="userSpaceOnUse" x1="219.761" y1="-123.1075" x2="199.5827" y2="434.5468">
		<stop  offset="0" style="stop-color:#FB9A2B"/>
		<stop  offset="1" style="stop-color:#E65925"/>
	</linearGradient>
	<path style="fill:url(#SVGID_38_);" d="M213.7,484l-2.1-14.2l10.5-9.8c1.2-1.1,0.6-3.1-1-3.4l-14.2-2.4l-6-13.1
		c-0.7-1.5-2.8-1.5-3.5-0.1l-6.7,12.7l-14.3,1.7c-1.6,0.2-2.3,2.2-1.2,3.3l10,10.3l-2.8,14.1c-0.3,1.6,1.3,2.9,2.8,2.2l12.9-6.4
		l12.5,7C212.2,486.8,213.9,485.6,213.7,484z"/>
	<linearGradient id="SVGID_39_" gradientUnits="userSpaceOnUse" x1="707.7632" y1="-105.4476" x2="687.5848" y2="452.2086">
		<stop  offset="0" style="stop-color:#FB9A2B"/>
		<stop  offset="1" style="stop-color:#E65925"/>
	</linearGradient>
	<path style="fill:url(#SVGID_39_);" d="M714.8,139.9l-2.1-14.2l10.5-9.8c1.2-1.1,0.6-3.1-1-3.4l-14.2-2.4L702,97
		c-0.7-1.5-2.8-1.5-3.5-0.1l-6.7,12.7l-14.3,1.7c-1.6,0.2-2.3,2.2-1.2,3.3l10,10.3l-2.8,14.1c-0.3,1.6,1.3,2.9,2.8,2.2l12.9-6.4
		l12.5,7C713.3,142.7,715,141.5,714.8,139.9z"/>
	<linearGradient id="SVGID_40_" gradientUnits="userSpaceOnUse" x1="1504.9802" y1="-76.6013" x2="1484.8018" y2="481.0565">
		<stop  offset="0" style="stop-color:#FB9A2B"/>
		<stop  offset="1" style="stop-color:#E65925"/>
	</linearGradient>
	<path style="fill:url(#SVGID_40_);" d="M1511.2,189.6l-2.1-14.2l10.5-9.8c1.2-1.1,0.6-3.1-1-3.4l-14.2-2.4l-6-13.1
		c-0.7-1.5-2.8-1.5-3.5-0.1l-6.7,12.7l-14.3,1.7c-1.6,0.2-2.3,2.2-1.2,3.3l10,10.3l-2.8,14.1c-0.3,1.6,1.3,2.9,2.8,2.2l12.9-6.4
		l12.5,7C1509.7,192.4,1511.5,191.2,1511.2,189.6z"/>
	<linearGradient id="SVGID_41_" gradientUnits="userSpaceOnUse" x1="1221.6686" y1="-86.8524" x2="1201.4902" y2="470.8038">
		<stop  offset="0" style="stop-color:#FB9A2B"/>
		<stop  offset="1" style="stop-color:#E65925"/>
	</linearGradient>
	<path style="fill:url(#SVGID_41_);" d="M1229.3,139.9l-2.1-14.2l10.5-9.8c1.2-1.1,0.6-3.1-1-3.4l-14.2-2.4l-6-13.1
		c-0.7-1.5-2.8-1.5-3.5-0.1l-6.7,12.7l-14.3,1.7c-1.6,0.2-2.3,2.2-1.2,3.3l10,10.3l-2.8,14.1c-0.3,1.6,1.3,2.9,2.8,2.2l12.9-6.4
		l12.5,7C1227.8,142.7,1229.6,141.5,1229.3,139.9z"/>
	<path style="fill:#50BFA5;" d="M569.9,801.8H322.3c-12.2,0-22.1,9.9-22.1,22.1v181.3c0,12.2,9.9,22.1,22.1,22.1h247.5
		c12.2,0,22.1-9.9,22.1-22.1V823.9C592,811.7,582.1,801.8,569.9,801.8z"/>
	<g>
		<linearGradient id="SVGID_42_" gradientUnits="userSpaceOnUse" x1="273.9643" y1="970.0351" x2="620.2412" y2="970.0351">
			<stop  offset="0" style="stop-color:#00503E"/>
			<stop  offset="1" style="stop-color:#023222"/>
		</linearGradient>
		<path style="fill:url(#SVGID_42_);" d="M312.4,1297.7h269.3c21.2,0,38.5-17.2,38.5-38.5l0-578.4c0-21.2-17.2-38.5-38.5-38.5H312.4
			c-21.2,0-38.5,17.2-38.5,38.5v578.4C274,1280.5,291.2,1297.7,312.4,1297.7z"/>
		<path style="fill:#EDFDFC;" d="M603.5,1191.2V706.7c0-20.3-16.5-36.8-36.8-36.8H332.6c-20.3,0-36.8,16.5-36.8,36.8v484.5
			c0,20.3,16.5,36.8,36.8,36.8h234.1C587,1228,603.5,1211.5,603.5,1191.2z"/>
	</g>
	<g>
		<path style="fill:#F7A491;" d="M587.9,462.8c0,0,0.9-1.9,0.9-6.1c-0.1-5.3-1.1-13.3-1.3-14c-0.4-1.3,16.8-6.7,16.8-6.7
			s27.5-1.4,31.6-4.5c4.1-3.1,7.5-4.3,5.6-1.2c-3.5,5.8-11.5,14.2-13.3,15.4c-1.8,1.2-23.2,6.5-23.6,6.5c-0.4,0-0.3,13.4-0.3,13.4
			L587.9,462.8z"/>
		<g>
			<linearGradient id="SVGID_43_" gradientUnits="userSpaceOnUse" x1="614.0272" y1="478.3424" x2="452.6007" y2="631.9728">
				<stop  offset="0" style="stop-color:#53CD9F"/>
				<stop  offset="1" style="stop-color:#0D7A5C"/>
			</linearGradient>
			<path style="fill:url(#SVGID_43_);" d="M605.8,457.1c0,0-17.8-3-18.2-1.2c-7.2,39.4-8.4,52.5-9.2,52.9
				c-2.7,1.4-41.5-32.7-47.9-34.9c-3.1-1.1-6.4-0.9-9.6-0.8c-7.6,0.2-9.1,0.3-9.1,0.3c-0.2,0-0.3,0-0.3,0l0,7.2
				c8.6,7.7,28.3,124.8,29.9,124.8c1.9-0.1,40.7,9.7,40,6.4c-0.1-0.5-26.4-22-33.8-53c-2.5-10.4-3.7-21.6-5.1-31.4
				c8.6,4.3,42.4,20.9,47.7,18.7C607,539.2,605.8,457.1,605.8,457.1z"/>
			<path style="fill:#F7A491;" d="M672.8,665c0,0,36.2,28.3,37.4,33.4c1.7,7.2,34.9-2.3,26.9-3.7c-1.8-0.3-7.7-1.8-8.2-2.1
				c-2.6-1.4-34.8-40.2-34.8-40.2L672.8,665z"/>
			<linearGradient id="SVGID_44_" gradientUnits="userSpaceOnUse" x1="708.8472" y1="704.2036" x2="769.1507" y2="704.2036">
				<stop  offset="0" style="stop-color:#FB9A2B"/>
				<stop  offset="1" style="stop-color:#E65925"/>
			</linearGradient>
			<path style="fill:url(#SVGID_44_);" d="M752.6,694.6l-23.1-1.9c0,0-6.6,5.5-19.3,5.7c0,0-2,5.8-1.1,12.6c0.2,1.2,0.4,4.7,1.5,4.6
				c4.3-0.3,15.6-3.1,28.6-5.7c0,0,17.4-3.7,27.5-9.7C776.8,694.2,752.6,694.6,752.6,694.6z"/>
			<path style="fill:#A1BC61;" d="M510.7,593.9c0,0,26.5,4.5,55.8-2.4c33.9-7.9,71.4-15.3,82.4-8.9c8.8,5.1,64.1,88.6,64.1,88.6
				l-21.3,15.6l-60.8-68.1c0,0-77.6,28.6-95,25.4C496.1,636.9,495.6,605.2,510.7,593.9z"/>
			<polygon style="fill:#A1BC61;" points="539.6,577.1 566.1,608.6 517,623.6 510.7,593.9 			"/>
			<path style="fill:#F7A491;" d="M593.5,721c0,0-1.6,43.8-2.6,51.2c-1,7.4,18.6,29.6,16.1,21.9c-0.6-1.8-2.1-7.7-2.1-8.2
				c0-2.9,7.3-52.8,7.3-52.8L593.5,721z"/>
			<linearGradient id="SVGID_45_" gradientUnits="userSpaceOnUse" x1="572.2629" y1="798.0966" x2="621.6635" y2="798.0966">
				<stop  offset="0" style="stop-color:#FB9A2B"/>
				<stop  offset="1" style="stop-color:#E65925"/>
			</linearGradient>
			<path style="fill:url(#SVGID_45_);" d="M619.5,810L605,786.5c0,0-7.9-3.2-14.2-14.3c0,0-6.1,1-11.6,5c-0.9,0.7-7.4,5.4-7,6.5
				c1.7,4,10.5,12.6,20.1,22c0,0,13.7,11,23.7,17C626.2,828.8,619.5,810,619.5,810z"/>
			<path style="fill:#B7D972;" d="M636.4,634.7c-9.3-12.4-84-24.1-84-24.1l-20.8-40.1L485.5,599c0,0,4.6,36.7,8.1,46.5
				c4.6,13.1,35.6,13.7,54.5,13.5c17.4-0.2,49.2,3.4,49.2,3.4l-10.8,94.9c0,0,21.1,4.8,27.1,4C614.3,761.2,648,650.1,636.4,634.7z"
				/>
			<linearGradient id="SVGID_46_" gradientUnits="userSpaceOnUse" x1="484.0371" y1="546.5576" x2="553.8461" y2="546.5576">
				<stop  offset="0" style="stop-color:#00503E"/>
				<stop  offset="1" style="stop-color:#023222"/>
			</linearGradient>
			<path style="fill:url(#SVGID_46_);" d="M511.7,473.4l-26,1.5c0,0-0.6,0.2-0.8,0.2c-2.1,0.4-0.2,76.2,1.7,104.5
				c1.9,28.3,5.7,40.2,5.7,40.2s35.3-6.3,46.1-10.5c4.5-1.7,15.4-15.3,15.4-15.3s-11.1-14.9-16.7-39.2c-4.3-18.7-9.6-51.9-12.7-58.8
				C517.5,480,511.7,473.4,511.7,473.4z"/>
		</g>
		<path style="fill:#F7A491;" d="M486.5,451.9l-0.7,23c0,0,16.8,29,25.5,25c7.3-3.4,0.8-25.5,0.8-25.5s-1.3-5.1-3-10.9
			c-1.2-4.1-2.2-8.5-2.2-11.7C507.1,443.9,486.5,451.9,486.5,451.9z"/>
		<g>
			<path style="fill:#473B1E;" d="M506.6,399.5c0,0,8.6,12.9,9.2,23.8c0.6,10.9-1.7,18.3-1.7,18.3l-27.5-32.9L506.6,399.5z"/>
			<path style="fill:#F48C7F;" d="M518.7,421.1c0.4,3.8-1.1,7.1-3.3,7.3c-2.2,0.2-4.3-2.7-4.7-6.5c-0.4-3.8,1.1-7.1,3.3-7.3
				C516.2,414.4,518.3,417.3,518.7,421.1z"/>
			<path style="fill:#F7A491;" d="M477.7,414c-0.6-0.1-0.6,31.5,8.6,39c9.2,7.5,25.2,8.1,29.8,0.6c5.2-8.3,0.3-41.7-13.4-48.8
				C489.1,397.7,477.7,414,477.7,414z"/>
			<path style="fill:#473B1E;" d="M475.4,394.3c-7,6.1-10.4,10.6-15.1,21.6c-5.8,13.4,5.7,27.4,15.4,32.9
				c9.7,5.5,10.5,12.2,10.5,12.2l0.4-4.1c0.2-1.5,0.1-2.7-0.1-3.8c-0.3-1.2-0.9-2.3-1.4-3.3c-0.8-1.8-3.5-7.8-4.5-9.4
				c-2.7-4.2-3.3-5.1-1.9-9.1c1-3.1-0.2-9.9,1.4-15l13.1-2.8c0,0,8.2-2,12.3-6.7C517.3,393,493.9,377.8,475.4,394.3z"/>
			<path style="fill:#F7A491;" d="M481.8,434.7c1.6,3.5,1.3,7.1-0.7,8c-2,0.9-5-1.1-6.6-4.6c-1.6-3.5-1.3-7.1,0.7-8
				C477.2,429.1,480.1,431.2,481.8,434.7z"/>
		</g>
		<path style="fill:#F8A492;" d="M392.8,347.3c1.5,6.1,4.2,15.7,4.2,15.7c-0.2,2.6-1,13.7-1.9,27.2l19.9-8c0,0-0.2-22,0.6-23.4
			c0.7-1.1,2,0.3,8.1-8.4c1.8-2.5,2.1-7,2.1-7s0.4-5.5-0.9-6c-1.2-0.5-2.7,0.3-3.1,1.3c-0.4,1-0.3,3.2-0.8,4.1c-0.5,1-3.3,2.1-4.5,2
			c-1.2-0.1,0.2-16.4,0.2-16.4s0.7-4.6,1-6.1c0.3-1.3,1.5-5.1,1.5-5.1s1.4-5.5-0.3-5.9c-1-0.2-3.6,4.2-5.3,8.9
			c-1.9,5.1-3,10.5-3.5,10.4c-1.3-0.2-0.6-9.1-0.6-9.1s1.3-4.1,1.2-6c1.2-2.4,2-6.8-0.1-7.1c-0.4-0.1-3.2,5.5-3.2,5.5
			s-1.1,3.9-1.7,5.8c-1.1,3.2-1.3,8.4-1.9,10.6c-0.5,1.9-0.9,1.1-1.1,1.2c-0.2,0.1,0.1-2.5,0.4-6.1c0.2-1.8,0-3.9,0.5-5.9
			c0.5-1.9,0.7-4.6,0.9-6.2c0.3-4.6-2.6-4.1-3.6,0.1c-0.4,1.6-0.8,3.4-1.2,5.1c-1.6,6.9-1.5,13.6-2.3,13.7c-1,0.1-0.3-12.1-0.3-12.1
			s-1.5-6.7-3-0.5c-1.7,7.2-1.5,13.2-1.5,13.4C392.5,334.9,391.3,341.2,392.8,347.3z"/>
		<linearGradient id="SVGID_47_" gradientUnits="userSpaceOnUse" x1="557.3013" y1="418.7378" x2="395.8743" y2="572.3688">
			<stop  offset="0" style="stop-color:#53CD9F"/>
			<stop  offset="1" style="stop-color:#0D7A5C"/>
		</linearGradient>
		<path style="fill:url(#SVGID_47_);" d="M485.7,474.8c0,0-25.8-1.2-32.4-4.2c-4-1.8-37.2-28.5-37.2-28.5l0.4-71.5l-23.3-1.8
			c0,0-12.1,79-7.9,87.7c4.3,8.9,52.8,45.7,62.5,61.7c5.6,9.2,17.2,134.2,19,135.3c12.5,6.5,51.3,13.1,50.4,9.1
			C492,553.1,485.7,474.8,485.7,474.8z"/>
		<g>
			<circle style="fill:#B7D972;" cx="600.8" cy="366.3" r="77.5"/>
			<linearGradient id="SVGID_48_" gradientUnits="userSpaceOnUse" x1="603.1863" y1="287.9069" x2="599.0588" y2="425.9454">
				<stop  offset="0" style="stop-color:#C9CD55"/>
				<stop  offset="0.5065" style="stop-color:#659C52"/>
				<stop  offset="1" style="stop-color:#287F50"/>
			</linearGradient>
			<circle style="fill:url(#SVGID_48_);" cx="600.8" cy="366.3" r="65"/>
			<g>
				<path style="fill:#EDFDFC;" d="M580.7,408l3.7-10.2c-4.5-1.9-8.7-4.4-12-7c-2.7-2.1-3.3-6.1-1.4-8.9l0.2-0.3
					c2.2-3.2,6.6-3.9,9.6-1.4c3,2.5,6.7,4.7,10.9,6.2c6.1,2.2,11.2,1.4,12.7-2.9c1.5-4.1-1-7.9-8-13.5c-10.1-8-16-16.3-12.2-26.7
					c3.4-9.5,12.8-14.5,25.1-12.5l3.7-10.2l10.5,3.8l-3.4,9.5c3.8,1.6,6.9,3.3,9.3,5c3,2.1,3.7,6.1,1.7,9.1l0,0
					c-2.1,3.1-6.4,3.8-9.4,1.6c-2.3-1.7-5.2-3.4-9-4.8c-7-2.5-10.3-0.3-11.4,2.7c-1.3,3.5,1.7,7.2,9.5,13.9
					c11.1,9.1,14.2,16.9,10.7,26.6c-3.5,9.6-13.2,15.3-26.3,12.9l-4,11L580.7,408z"/>
			</g>
		</g>
		<path style="fill:#F7A491;" d="M598.9,444.2c0,0,7.2-3.1,9.1-3.7c1.9-0.6,8.1-1.8,8.1-1.8s9.5-9.8,12-10.1
			c2.4-0.3-5.6,10.7-5.6,10.7l-3.3,3.2c0,0,5.4-4.6,6.4-5.3c1-0.6,9.1-12.3,11.1-11.5c2,0.8-3.5,9-6.1,13.3c-2.7,4.4-15,7-15,7
			L598.9,444.2z"/>
	</g>
	<g>
		<linearGradient id="SVGID_49_" gradientUnits="userSpaceOnUse" x1="442.3473" y1="1069.0566" x2="240.1054" y2="1289.1841">
			<stop  offset="0" style="stop-color:#C9CD55"/>
			<stop  offset="0.5065" style="stop-color:#659C52"/>
			<stop  offset="1" style="stop-color:#287F50"/>
		</linearGradient>
		<path style="fill:url(#SVGID_49_);" d="M356.3,1296H140.2c-8.7,0-15.7-7-15.7-15.7l0,0c0-8.7,7-15.7,15.7-15.7h216.1
			c8.7,0,15.7,7,15.7,15.7l0,0C372,1289,364.9,1296,356.3,1296z"/>
		<path style="fill:#B7D972;" d="M351.9,1264.6H135.8c-8.7,0-15.7-7-15.7-15.7v0c0-8.7,7-15.7,15.7-15.7h216.1
			c8.7,0,15.7,7,15.7,15.7v0C367.6,1257.6,360.5,1264.6,351.9,1264.6z"/>
		<linearGradient id="SVGID_50_" gradientUnits="userSpaceOnUse" x1="422.4337" y1="1050.7599" x2="220.192" y2="1270.8873">
			<stop  offset="0" style="stop-color:#C9CD55"/>
			<stop  offset="0.5065" style="stop-color:#659C52"/>
			<stop  offset="1" style="stop-color:#287F50"/>
		</linearGradient>
		<path style="fill:url(#SVGID_50_);" d="M377.2,1233.2H161.2c-8.7,0-15.7-7-15.7-15.7l0,0c0-8.7,7-15.7,15.7-15.7h216.1
			c8.7,0,15.7,7,15.7,15.7l0,0C392.9,1226.2,385.9,1233.2,377.2,1233.2z"/>
		<linearGradient id="SVGID_51_" gradientUnits="userSpaceOnUse" x1="392.5994" y1="1023.3496" x2="190.3574" y2="1243.4773">
			<stop  offset="0" style="stop-color:#C9CD55"/>
			<stop  offset="0.5065" style="stop-color:#659C52"/>
			<stop  offset="1" style="stop-color:#287F50"/>
		</linearGradient>
		<path style="fill:url(#SVGID_51_);" d="M351.1,1201.8H135c-8.7,0-15.7-7-15.7-15.7l0,0c0-8.7,7-15.7,15.7-15.7h216.1
			c8.7,0,15.7,7,15.7,15.7l0,0C366.7,1194.8,359.7,1201.8,351.1,1201.8z"/>
		<linearGradient id="SVGID_52_" gradientUnits="userSpaceOnUse" x1="431.6928" y1="1048.1515" x2="97.8328" y2="1232.5083">
			<stop  offset="0" style="stop-color:#C9CD55"/>
			<stop  offset="0.5065" style="stop-color:#659C52"/>
			<stop  offset="1" style="stop-color:#287F50"/>
		</linearGradient>
		<path style="fill:url(#SVGID_52_);" d="M346.7,1170.5H130.6c-8.7,0-15.7-7-15.7-15.7l0,0c0-8.7,7-15.7,15.7-15.7h216.1
			c8.7,0,15.7,7,15.7,15.7l0,0C362.4,1163.4,355.3,1170.5,346.7,1170.5z"/>
		<linearGradient id="SVGID_53_" gradientUnits="userSpaceOnUse" x1="372.6848" y1="1005.053" x2="170.443" y2="1225.1804">
			<stop  offset="0" style="stop-color:#C9CD55"/>
			<stop  offset="0.5065" style="stop-color:#659C52"/>
			<stop  offset="1" style="stop-color:#287F50"/>
		</linearGradient>
		<path style="fill:url(#SVGID_53_);" d="M372,1139.1H156c-8.7,0-15.7-7-15.7-15.7l0,0c0-8.7,7-15.7,15.7-15.7H372
			c8.7,0,15.7,7,15.7,15.7l0,0C387.7,1132,380.7,1139.1,372,1139.1z"/>
	</g>
	<g>
		<linearGradient id="SVGID_54_" gradientUnits="userSpaceOnUse" x1="349.2015" y1="939.2362" x2="554.1675" y2="939.2362">
			<stop  offset="0" style="stop-color:#00503E"/>
			<stop  offset="1" style="stop-color:#023222"/>
		</linearGradient>
		<path style="fill:url(#SVGID_54_);" d="M540.2,953.2h-177c-7.7,0-14-6.3-14-14l0,0c0-7.7,6.3-14,14-14h177c7.7,0,14,6.3,14,14l0,0
			C554.2,947,547.9,953.2,540.2,953.2z"/>
		<g>
			<path style="fill:#B7D972;" d="M529.7,848.3c13.9,40.5-7.6,84.6-48.1,98.5s-84.6-7.6-98.5-48.1c-13.9-40.5,7.6-84.6,48.1-98.5
				C471.7,786.3,515.8,807.8,529.7,848.3z"/>
			<linearGradient id="SVGID_55_" gradientUnits="userSpaceOnUse" x1="469.7659" y1="780.0802" x2="449.5875" y2="921.3293">
				<stop  offset="0" style="stop-color:#C9CD55"/>
				<stop  offset="0.5065" style="stop-color:#659C52"/>
				<stop  offset="1" style="stop-color:#287F50"/>
			</linearGradient>
			<path style="fill:url(#SVGID_55_);" d="M517.9,852.3c11.7,34-6.4,71-40.3,82.6c-34,11.7-71-6.4-82.6-40.3
				c-11.7-34,6.4-71,40.3-82.6C469.2,800.3,506.2,818.3,517.9,852.3z"/>
			<g>
				<path style="fill:#FFFFFF;" d="M451,919.5l0.2-10.9c-4.9-0.3-9.7-1.3-13.6-2.7c-3.3-1.1-5.1-4.6-4.2-8l0.1-0.4
					c1-3.7,5-5.8,8.6-4.5c3.7,1.3,7.9,2.3,12.4,2.3c6.5,0.1,11-2.3,11.1-6.9c0.1-4.3-3.5-7.1-11.9-10.1
					c-12.2-4.3-20.4-10.2-20.2-21.2c0.2-10.1,7.4-17.8,19.6-20l0.2-10.9l11.2,0.2l-0.2,10.1c4.2,0.3,7.6,0.9,10.4,1.7
					c3.5,1,5.5,4.6,4.5,8.1l0,0c-1,3.6-4.8,5.7-8.3,4.6c-2.7-0.8-6-1.5-10-1.6c-7.4-0.1-9.9,3-9.9,6.2c-0.1,3.8,3.9,6.2,13.5,10.1
					c13.5,5,18.9,11.4,18.7,21.7c-0.2,10.2-7.5,18.7-20.7,20.8l-0.2,11.7L451,919.5z"/>
			</g>
		</g>
	</g>
	<g>
		<linearGradient id="SVGID_56_" gradientUnits="userSpaceOnUse" x1="332.4584" y1="1020.6115" x2="580.393" y2="1020.6115">
			<stop  offset="0" style="stop-color:#00503E"/>
			<stop  offset="1" style="stop-color:#023222"/>
		</linearGradient>
		<path style="fill:url(#SVGID_56_);" d="M560.4,1040.6H352.5c-11.1,0-20-9-20-20l0,0c0-11,9-20,20-20h207.9c11.1,0,20,9,20,20l0,0
			C580.4,1031.7,571.4,1040.6,560.4,1040.6z"/>
		<linearGradient id="SVGID_57_" gradientUnits="userSpaceOnUse" x1="332.4584" y1="1020.6115" x2="487.7533" y2="1020.6115">
			<stop  offset="0" style="stop-color:#FB9A2B"/>
			<stop  offset="1" style="stop-color:#E65925"/>
		</linearGradient>
		<path style="fill:url(#SVGID_57_);" d="M487.8,1020.6L487.8,1020.6c0-11-9-20-20-20H352.5c-11.1,0-20,9-20,20l0,0
			c0,11.1,9,20,20,20h115.3C478.8,1040.6,487.8,1031.7,487.8,1020.6z"/>
	</g>
	<g>
		<linearGradient id="SVGID_58_" gradientUnits="userSpaceOnUse" x1="417.2134" y1="1141.2094" x2="479.9457" y2="1141.2094">
			<stop  offset="0" style="stop-color:#53CD9F"/>
			<stop  offset="1" style="stop-color:#0D7A5C"/>
		</linearGradient>
		<path style="fill:url(#SVGID_58_);" d="M473.1,1130.5v-7.7c0-13.5-11-24.5-24.5-24.5c-13.5,0-24.5,11-24.5,24.5v7.7
			c-4.1,2.3-6.9,6.6-6.9,11.7v28.5c0,7.4,6,13.4,13.4,13.4h36c7.4,0,13.4-6,13.4-13.4v-28.5C479.9,1137.2,477.2,1132.8,473.1,1130.5
			z M430.6,1128.9c-0.1,0-0.1,0-0.2,0v-6c0-10,8.2-18.2,18.2-18.2c10,0,18.2,8.2,18.2,18.2v6c-0.1,0-0.1,0-0.2,0H430.6z"/>
		<g>
			<path style="fill:#EDFDFC;" d="M454.2,1153c0,2.4-2,4.4-4.4,4.4s-4.4-2-4.4-4.4c0-2.4,2-4.4,4.4-4.4S454.2,1150.5,454.2,1153z"/>
			<polygon style="fill:#EDFDFC;" points="449.9,1150 444.5,1172.4 455.2,1172.4 			"/>
		</g>
	</g>
	<g>
		<linearGradient id="SVGID_59_" gradientUnits="userSpaceOnUse" x1="794.9875" y1="775.8426" x2="1051.5581" y2="775.8426">
			<stop  offset="0" style="stop-color:#00503E"/>
			<stop  offset="1" style="stop-color:#023222"/>
		</linearGradient>
		<path style="fill:url(#SVGID_59_);" d="M1023.4,732.2v-31.3c0-55.2-44.9-100.2-100.2-100.2C868,600.7,823,645.6,823,700.9v31.4
			c-16.7,9.3-28,27.2-28,47.7v116.4c0,30.2,24.4,54.6,54.6,54.6h147.4c30.2,0,54.6-24.4,54.6-54.6V780
			C1051.6,759.4,1040.2,741.5,1023.4,732.2z M849.6,725.4c-0.3,0-0.6,0-0.9,0v-24.5c0-41.1,33.4-74.5,74.5-74.5s74.5,33.4,74.5,74.5
			v24.5c-0.3,0-0.5,0-0.8,0H849.6z"/>
		<g>
			<linearGradient id="SVGID_60_" gradientUnits="userSpaceOnUse" x1="1003.9182" y1="710.7328" x2="874.5931" y2="904.7202">
				<stop  offset="0" style="stop-color:#C9CD55"/>
				<stop  offset="0.5065" style="stop-color:#659C52"/>
				<stop  offset="1" style="stop-color:#287F50"/>
			</linearGradient>
			<path style="fill:url(#SVGID_60_);" d="M954.6,823.9c0,14.4-11.7,26.1-26.1,26.1s-26.1-11.7-26.1-26.1s11.7-26.1,26.1-26.1
				S954.6,809.5,954.6,823.9z"/>
			<linearGradient id="SVGID_61_" gradientUnits="userSpaceOnUse" x1="1027.0355" y1="726.144" x2="897.7106" y2="920.1313">
				<stop  offset="0" style="stop-color:#C9CD55"/>
				<stop  offset="0.5065" style="stop-color:#659C52"/>
				<stop  offset="1" style="stop-color:#287F50"/>
			</linearGradient>
			<polygon style="fill:url(#SVGID_61_);" points="928.5,811.7 906.5,903.3 950.5,903.3 			"/>
		</g>
	</g>
	<g>
		<g>
			<path style="fill:#F8A492;" d="M1225,663.9c-3.4,9.6-4.9,8.6-5.4,9.9c-0.5,1.5,5.1,21.3,5.1,21.3s16.1,58.6,17.1,61.7l40.7,48.6
				l-19,26.5c0,0-42.8-54.1-44.5-57.3c-1.7-3.2-14.1-84.8-15.4-92c0,0-4.8-8-7.7-13.1c-2.9-5.1-3.2-11.2-3.8-12.7
				c-0.1-0.2-1.7-5.5-1.9-12.5c-0.2-6.1,2.8-0.4,2.8-0.4s2.4,11.2,3.3,10.8c0.7-0.3-1-6.3-1.3-13c-0.1-1.7,3.8-2,3.8-0.2
				c0,2,0.7,3.8,1,5.5c0.6,3.3,1,5.7,1.1,5.6c0.2-0.1,0.8,0.4,0.7-1.4c0-2.2-1.1-6.9-0.9-10.1c0.1-1.8,0.2-5.7,0.2-5.7
				s3.9-1.9,3.4,0.6c0.5,1.7,0.3,5.8,0.3,5.8s1.6,8.3,2.8,8.1c0.5-0.1,0.2-5.3,0.7-10.4c0.4-4.8,4.4-4.3,4.4-4.3s-0.1,3.7-0.1,5
				c0.1,1.5,0.6,5.8,0.6,5.8s2.1,13.4,3.2,13.2c1.1-0.3,3.7-1.7,3.9-2.7c0.2-1-1.7-5.9-1.5-6.9c0.2-1,1.7-1.2,3-1
				c1.3,0.1,3.5,8.4,3.5,8.4S1226,661.2,1225,663.9z"/>
			<path style="fill:#F47458;" d="M1216.2,659.3c0,0-2.8,0.2-5.5,2.4c-2.6,2.2-3.1,8.7-3.1,8.7s-1.3-5.5-0.5-8.5
				C1208,658.8,1213.3,658,1216.2,659.3z"/>
		</g>
		<path style="fill:#F7A491;" d="M1416.1,626.6c0,0,2.2-0.2,2.4,0c0.7,0.5,3.1,2.3,3.1,4.8c0,3.2,0.9,2.9,0.9,2.9l1.9,14.6l-1.7,4.8
			c0,0-3.5-4.9-4.8-8.6C1415.6,638,1414.1,627.6,1416.1,626.6z"/>
		<g>
			<linearGradient id="SVGID_62_" gradientUnits="userSpaceOnUse" x1="1038.8148" y1="663.679" x2="1485.4994" y2="663.679">
				<stop  offset="0" style="stop-color:#00503E"/>
				<stop  offset="1" style="stop-color:#023222"/>
			</linearGradient>
			<polygon style="fill:url(#SVGID_62_);" points="1483.3,608.6 1157.1,638.1 1154.2,600.6 1134.7,602.1 1137.6,639.6 1112.7,641.5 
				1109.5,600.7 1084.5,602.7 1087.6,643.5 1038.8,647.2 1040.9,674.1 1095.3,670 1099.7,726.8 1168.2,721.5 1163.8,664.7 
				1485.5,634.5 			"/>
			<linearGradient id="SVGID_63_" gradientUnits="userSpaceOnUse" x1="1461.3828" y1="618.6266" x2="1585.3594" y2="618.6266">
				<stop  offset="0" style="stop-color:#00503E"/>
				<stop  offset="1" style="stop-color:#023222"/>
			</linearGradient>
			<path style="fill:url(#SVGID_63_);" d="M1523.4,531.2c-34.2,0-62,39.1-62,87.4c0,48.3,27.8,87.4,62,87.4c34.2,0,62-39.1,62-87.4
				C1585.4,570.3,1557.6,531.2,1523.4,531.2z M1523.4,671c-20.5,0-37.2-23.5-37.2-52.4c0-28.9,16.6-52.4,37.2-52.4
				c20.5,0,37.2,23.5,37.2,52.4C1560.5,647.6,1543.9,671,1523.4,671z"/>
		</g>
		<path style="fill:#F7A491;" d="M1439.3,622.3c0,0-2.1-9.4-2.9-12.1c-0.8-2.6-5.2-8.2-5.9-7.4c-0.7,0.8-0.5,3.1,0.3,4.4
			c0.7,1.3,3,8.3,3,8.3l0.5,9.8c0,0-1.1-7.7-1.9-10.2c-0.8-2.1-4.3-7.8-4.4-8c-0.1-0.1-2.6-2.6-3.9-3.8c-0.6-0.6-1.6-0.3-1.9,0.5
			c-0.1,0.2-0.1,0.5-0.1,0.9c0.2,1.6,1.5,3.5,2.5,4.8c1,1.2,3,5.3,3.5,7.3c0.6,2.2,1.2,9.1,0.7,9.1c-0.5,0-1.2-6.1-2-8
			c-0.7-1.7-3.1-4.6-4.3-6c-1.3-1.4-5-4.6-6.6-4.6c-1.6,0,2.4,5.3,2.8,5.8c0.3,0.5,3.7,5.6,3.7,5.6s1.7,7.6,0.8,7.6
			c-1,0-9.3-15-9.8-12.4c-0.5,2.4,4.7,11.3,5.2,13c0.4,1.2,2.1,14.4,3,23.2c0.3,2.7,2.1,4.8,1.7,6.2c-1.4,6-20.6,86.2-20.6,86.2
			s-16,23.4-20.6,29.4s-15.6,22.5-15.6,22.5l27,16.1l38.5-63.1c0,0,8.2-99.9,8.3-100L1439.3,622.3z"/>
		<path style="fill:#F7A491;" d="M1168.6,1162.5c-2.5,14.8-2.4,29.4-2.5,31.1c-0.1,1.3,0.5,7.1,0.6,8c-13.1,6.7-21.1,7.3-35,10.5
			c3.5-6.3,10.4-5.9,11.3-8.5c1.1-3.2,0.4-15.8-2.1-36.3C1150.6,1169.6,1159.1,1164.9,1168.6,1162.5z"/>
		<path style="fill:#F7A491;" d="M1280.5,1205.8c4.5,14.4,10.4,25,11.2,26.4c0.4,0.7,3.9,3,4.3,3.8c-8.7,11.6-11.4,30-22.5,38.8
			c0.3-7.2,4.2-20.9,3.8-23.7c-0.5-3.4-6.8-14.4-18.3-31.8C1268.7,1217.4,1273,1212.1,1280.5,1205.8z"/>
		<path style="fill:#002A24;" d="M1289.1,1237.5c1.1-3.3,5.2-5.8,8.4-4.1c3.3,1.7,7.6,3.4,10.8,5.2c3.7,2,4.1,4.6,4.1,5.2
			c-0.1,1.7-31.9,51.3-44.5,53.9c-5.2,1.1,3.4-40.6,8.8-45.1C1281.5,1248.7,1284.4,1252.2,1289.1,1237.5z"/>
		<path style="fill:#002A24;" d="M1163.3,1198.2c3.2-1.5,7.9-0.4,9,3c1,3.4,2.7,7.6,3.7,11.1c1,3.9-0.6,6-1,6.4
			c-1.4,1.1-66.4,9.5-70.8,6.6c-4.4-2.9,32.2-25.9,39.3-25.2C1149.6,1200.7,1149,1205,1163.3,1198.2z"/>
		<path style="fill:#473B1E;" d="M1276.3,964.6l67,20.9l-84,63.5l-81.5,14.8c0,0-6.3,75.5-6.8,105.6c-8.4,3.4-23.9,7.8-32.6,6.8
			c-6.1-41.7-12.3-127.9-4.9-141.1C1140,1023.6,1276.3,964.6,1276.3,964.6z"/>
		<path style="fill:#847D3D;" d="M1293.5,974.6c3.5-6.6,4.1-19.9,4.1-19.9l42.9,29.8l12.8,7.4c0,0,2.6,31.4-13.8,50.2
			c-16.4,18.8-93.5,69.7-93.5,69.7s27.4,70.6,40.1,97c-6.5,7.2-17.4,16.1-26.8,19.4c-11.7-19-74.8-105.9-71.8-125.2
			C1189.6,1088.8,1290,981.1,1293.5,974.6z"/>
		<path style="fill:#EDFDFC;" d="M1370.3,782.5c0,0-24.8,24.6-38.8,30.4c-3.1,1.3-11,3.7-13.6,3.8c-14.2,0.8-50.8-34-50.8-34
			s-19.8,26.8-19.7,30.7c0.1,3.3,22.7,26,24.1,34.3c4.4,26.1-2.8,118-2.8,118c19.5,15.2,85.8,28.1,85.8,28.1s14.3-141.5,15.5-142.5
			c4.9-4.2,28.3-39.3,29.2-43.3C1401,800.7,1370.3,782.5,1370.3,782.5z"/>
		<path style="fill:#F7A491;" d="M1313.7,804.8l-3.3,13.5c0,0-0.8,11.8,4.7,12.8c6.6,1.3,16.4-8.6,16.4-8.6l5.7-38.1L1313.7,804.8z"
			/>
		<path style="fill:#F47458;" d="M1337.1,784.6l-23.4,20.2l-2.5,10.1C1320.2,812.7,1332.9,802.9,1337.1,784.6z"/>
		<path style="fill:#F7A491;" d="M1313.6,749.5c-5.7,0-10.7,3.9-12.7,9.5c-1.6,4.7-3.8,11.6-5.1,19.6c-2.5,14.6,5.9,28.1,13.1,29.1
			c7.3,1.1,24.5-3.7,28.4-24.5c1.6-8.9,3.8-20.6-3.5-26.7C1328.1,751.8,1320.1,749.6,1313.6,749.5z"/>
		<linearGradient id="SVGID_64_" gradientUnits="userSpaceOnUse" x1="1294.3845" y1="764.8148" x2="1361.7158" y2="764.8148">
			<stop  offset="0" style="stop-color:#FB9A2B"/>
			<stop  offset="1" style="stop-color:#E65925"/>
		</linearGradient>
		<path style="fill:url(#SVGID_64_);" d="M1335,799.1c0,0,25.6-22.8,26.7-40.6c1.1-17.8-15.3-27.4-29.4-27.9
			c-6.4-0.2-10.7,0.1-17.2,0.9c-14.1,1.8-23.2,8-20,19.6c4.3,15.5,33.6,2.4,39.5,7.2c4.9,4-3.1,13.5,1.7,17.2
			c4.5,3.4,2.2,2.3,0.7,8.8C1335.5,790.8,1335,799.1,1335,799.1z"/>
		<path style="fill:#F7A491;" d="M1344.8,778.4c-0.6,4.3-3.2,7.4-5.8,7c-2.6-0.4-4.2-4.2-3.5-8.4c0.6-4.3,3.2-7.4,5.8-7
			C1343.9,770.4,1345.5,774.2,1344.8,778.4z"/>
		<path style="fill:#F8A492;" d="M1220.1,648c0,0,5.4,7,5.4,11.9c0,4.9-2.8,9.5-2.8,9.5l-11.2-8.5c0,0,4.4-2.4,5.7-3.8
			c1.3-1.3-1.9-6.2-1.1-8.1C1217.1,647.1,1218.8,646.1,1220.1,648z"/>
	</g>
	<g>
		<path style="fill:#EDFDFC;" d="M1014.3,1174.1c25.4,36.1,16.6,86-19.5,111.3c-36.1,25.4-86,16.6-111.3-19.5
			c-25.4-36.1-16.6-86,19.5-111.3C939.1,1129.3,988.9,1138,1014.3,1174.1z"/>
		<linearGradient id="SVGID_65_" gradientUnits="userSpaceOnUse" x1="945.1423" y1="1130.6842" x2="950.6454" y2="1262.7607">
			<stop  offset="0" style="stop-color:#C9CD55"/>
			<stop  offset="0.5065" style="stop-color:#659C52"/>
			<stop  offset="1" style="stop-color:#287F50"/>
		</linearGradient>
		<circle style="fill:url(#SVGID_65_);" cx="948.9" cy="1220" r="67.1"/>
		<g>
			<path style="fill:#EDFDFC;" d="M956.6,1267.2l-2.9-10.8c-4.9,1.1-10,1.5-14.3,1.3c-3.6-0.2-6.4-3.1-6.5-6.7l0-0.4
				c-0.1-4,3.3-7.2,7.2-6.9c4,0.3,8.5,0,12.9-1.2c6.5-1.8,10.2-5.5,9-10c-1.2-4.3-5.5-6.1-14.7-6.6c-13.3-0.8-23.1-4.2-26.1-15.3
				c-2.7-10,2.2-19.8,13.7-25.4l-2.9-10.8l11.1-3l2.7,10c4.2-0.9,7.7-1.3,10.8-1.3c3.7,0,6.8,3,6.8,6.7l0,0c0,3.9-3.1,7-7,6.9
				c-2.9-0.1-6.4,0.2-10.4,1.3c-7.4,2-8.9,5.8-8.1,9c1,3.8,5.6,5.1,16.3,6.1c14.8,1.1,22,5.9,24.8,16.1c2.7,10.1-2.1,20.7-14.6,26.5
				l3.1,11.6L956.6,1267.2z"/>
		</g>
	</g>
</g>
</svg>
